<?xml version="1.0" encoding="UTF-8" standalone="no"?>
<!DOCTYPE svg PUBLIC "-//W3C//DTD SVG 1.1//EN" "http://www.w3.org/Graphics/SVG/1.1/DTD/svg11.dtd">
<svg width="100%" height="100%" viewBox="0 0 262 68" version="1.1" xmlns="http://www.w3.org/2000/svg" xmlns:xlink="http://www.w3.org/1999/xlink" xml:space="preserve" xmlns:serif="http://www.serif.com/" style="fill-rule:evenodd;clip-rule:evenodd;stroke-linejoin:round;stroke-miterlimit:2;">
    <g transform="matrix(1,0,0,1,-0.30508,-0.157852)">
        <g id="Layer_1">
        </g>
        <g id="Artboard1" transform="matrix(0.967395,0,0,0.907277,4.75741,-259.904)">
            <rect x="-4.602" y="286.64" width="270.298" height="74.517" style="fill:none;"/>
            <g id="Layer_3" transform="matrix(1.0337,0,0,1.1022,37.0041,-195.27)">
                <g>
                    <path d="M-40,495L-40,493.5L63,493.5L63,495L-40,495ZM-40,463.5L-40,462L63,462L63,463.5L-40,463.5ZM118,462L220,462L220,463.5L118,463.5L118,462ZM118,493.5L220,493.5L220,495L118,495L118,493.5Z" style="fill:rgb(26,23,27);fill-rule:nonzero;"/>
                </g>
                <g>
                    <path d="M89.4,441C88.2,441.2 87,441.5 86,441.9C84.9,442.3 83.9,442.9 83,443.6C82.4,444.1 81.8,444.7 81.2,445.3C80.7,445.8 80.2,446.5 79.7,447.3C78.9,448.5 78.2,449.7 77.7,450.8C77.1,452.1 76.7,453.4 76.5,454.7C76.4,455.3 76.2,455.7 75.9,456C75.6,456.3 75.1,456.4 74.5,456.4C73.7,456.4 73,456.7 72.3,457.2C71.9,457.6 71.6,458 71.6,458.5C71.6,459 71.7,459.5 72.1,459.9C72.2,460 72.2,460.1 72.4,460.2C72.5,460.3 72.6,460.4 72.6,460.5C73,461 73,461.6 72.7,462.1C72.5,462.3 72.3,462.8 72,463.3C71.9,463.6 71.8,463.9 71.8,464.1C71.8,464.4 71.9,464.6 72.1,464.9C72.4,465.3 72.7,465.7 73.1,465.9C74.5,466.9 75.9,467 77.3,466.1C77.4,466 77.6,465.9 77.8,465.8C78.1,465.7 78.4,465.7 78.7,465.8C79,465.9 79.1,466.2 79.2,466.5C79.3,466.8 79.2,467.3 79.1,467.7C79,468.2 79,468.6 79.1,468.9C79.3,469.2 79.6,469.4 80,469.5C80.3,469.6 80.6,469.6 80.9,469.6L81.8,469.6C83,469.6 84.1,469.1 85.1,468.1L84.4,467.7L84.8,467.7C86,467.6 87,467.9 87.9,468.8C88.2,469.1 88.5,469.3 88.9,469.4C89.6,469.7 90.3,469.8 91.1,469.7C91.8,469.6 92.5,469.4 93.2,469C93.3,469 93.4,468.9 93.6,468.8C93.7,468.7 93.8,468.6 94,468.5L91.7,467.9L94.5,467.9C94.8,467.9 95.1,467.9 95.4,468C95.7,468.1 95.9,468.2 96.2,468.4C96.5,468.6 96.7,468.7 96.9,468.8C99,469.4 101.1,469.5 103,469C103.6,468.9 104,468.6 104.3,468.4C104.7,468.1 104.9,467.6 105,467.1C105,467 105,467 105.1,466.8C105.2,466.5 105.3,466.3 105.5,466.2C105.7,466.1 105.9,466 106.2,466L107.4,466C108.2,465.9 108.8,465.7 109.3,465.3C109.8,464.9 110.1,464.4 110.2,463.7C110.3,463.2 110.3,462.8 110.2,462.5C110.1,462.1 109.9,461.7 109.5,461.5C109.2,461.3 109,461.1 108.9,460.8C108.8,460.6 108.8,460.3 108.8,459.9C109,458.9 108.7,457.9 108,457.1C107.8,456.8 107.5,456.5 107.2,456.4C106.9,456.2 106.5,456.2 106.1,456.3C106,456.3 105.8,456.3 105.6,456.1C104.8,455.6 103.7,454.8 102.1,453.8C102,453.7 101.9,453.6 101.9,453.6L102,453.4C102.3,453.5 102.8,453.8 103.5,454.1C104.1,454.4 104.7,454.7 105,454.8L105,454.2C104.9,453.2 104.6,452.1 104.2,451.1C103.8,450.2 103.4,449.2 102.7,448.2C101.6,446.4 100.2,444.8 98.3,443.4C97.5,442.8 96.7,442.3 95.9,441.9C95,441.5 94.2,441.2 93.3,441C92.6,440.9 91.9,440.8 91.1,440.8C90.9,440.8 90.2,440.9 89.4,441ZM94,439.2C95,439.4 96,439.8 97,440.3C102.5,443.2 105.9,447.7 107.1,453.7L107.1,453.9L107.2,454.5C108.4,454.8 109.4,455.4 110.1,456.5C110.8,457.5 111.1,458.7 111,459.9L111,460.1C111,460.2 111.1,460.3 111.1,460.3C111.8,460.8 112.1,461.6 112.2,462.6C112.3,463.5 112.1,464.4 111.7,465.2C111.3,466 110.7,466.7 109.9,467.1C109.2,467.5 108.4,467.7 107.4,467.7L106.9,467.7C106.9,467.7 106.8,467.7 106.8,467.8C106.7,468.3 106.4,468.8 106,469.2C105.7,469.4 105.3,469.7 104.6,470.1C104.5,470.2 104.4,470.2 104.3,470.3C104.3,470.4 104.2,470.5 104.2,470.6C103.9,471.9 103.5,473.1 103.2,474C101.9,478.1 99.6,485 96.5,494.5C95.3,498.1 94.7,500 94.7,500.2C94.3,501.3 93.8,502.3 93.1,503.1C92.7,503.6 92.1,503.8 91.3,503.9C90.5,503.9 89.8,503.7 89.4,503.3C88.6,502.4 88,501.4 87.6,500.4C87.3,499.5 86.9,498.2 86.3,496.6C85.7,494.8 85.3,493.6 85,492.8C82.2,484.3 80.1,478 78.7,473.7C78.5,473.1 78.1,472 77.6,470.5C77.4,470 77.3,469.6 77.2,469.3C77.1,468.9 77.1,468.5 77.1,468.1C76.7,468.2 76.4,468.2 76.2,468.2C75.8,468.3 75.5,468.3 75.3,468.3C73.4,468.3 71.8,467.5 70.7,466C70.2,465.3 69.9,464.6 70,463.8C70,463 70.3,462.3 70.9,461.6L71.1,461.4C70.4,460.6 70,459.7 69.9,458.9C69.8,458.1 70,457.4 70.4,456.7C70.8,456.1 71.4,455.5 72.1,455.1C72.9,454.7 73.7,454.5 74.6,454.5C74.8,453.9 74.9,453.5 74.9,453.2C75,452.7 75.2,452.2 75.3,451.9C76.5,448.3 78.4,445.2 81.1,442.6C82.5,441.3 84.3,440.3 86.5,439.7C88.1,439.3 89.4,439 90.6,439C91.9,438.9 92.9,439 94,439.2ZM85.7,471.8L85.8,471.4C86,470.7 86.4,470.6 87,471.1C87.3,471.3 87.3,471.6 87.2,471.9C87.2,472 87.1,472.1 87.1,472.3C87.1,472.4 87,472.6 87,472.6C86.9,472.8 86.8,473 86.9,473.1C86.9,473.2 87,473.4 87.2,473.6C87.4,473.8 87.7,474.1 88,474.5C88.2,474.7 88.4,475 88.8,475.5C89.4,473.9 89.8,473 89.8,472.9C89.9,472.6 90,472.5 90,472.4C90,472.2 89.9,472.1 89.7,471.9L89.4,471.6C89.3,471.6 89.3,471.5 89.3,471.5C88.7,471.4 88.2,471.2 87.8,471C87.3,470.7 86.9,470.4 86.6,469.9C85.6,470.6 84.6,471 83.5,471.3C82.4,471.6 81.3,471.6 80.1,471.4L82.8,479.6C82.9,479.3 83,479 83.1,478.9C83.2,478.6 83.3,478.4 83.3,478.3L83.3,478C83.3,477.9 83.3,477.8 83.2,477.8C83.1,477.6 82.8,477.3 82.6,476.9C82.3,476.5 82.1,476.2 82,476C81.8,475.8 81.8,475.6 81.9,475.4C82,475.2 82.2,475.1 82.4,475.1C82.9,475.1 83.3,475.2 83.6,475.6L84.1,476.3C84.3,475.8 84.4,475.5 84.5,475.3C84.7,474.9 84.8,474.6 84.9,474.3C85.1,474 85.1,473.7 85.1,473.5C85.1,473.3 84.9,473 84.7,472.8C84.5,472.6 84.4,472.4 84.5,472.2C84.6,472 84.8,471.9 85.1,471.8L85.5,471.8C85.4,471.8 85.5,471.8 85.7,471.8ZM94.6,470.5L94.8,470.8L95.7,470.2L95.3,469.9L94.6,470.5ZM91.8,472C92,472.3 92.4,472.7 92.9,473.3L93.1,473.2L93.6,471.1C92.5,471.4 91.9,471.5 91.9,471.6C91.8,471.6 91.7,471.7 91.7,471.8C91.7,471.8 91.7,471.9 91.8,472ZM94.9,471.9C94.8,472.1 94.8,472.3 94.7,472.5C94.7,472.7 94.6,472.9 94.5,473.3C94.4,473.6 94.3,473.9 94.3,474.1L94.3,474.3C94.3,474.4 94.3,474.4 94.4,474.5C94.6,474.7 95.3,475.3 96.3,476.2C96.6,475.1 96.8,474.5 96.8,474.4C96.9,474.1 97,473.9 97,473.7C97.1,473.4 97.1,473.2 97.1,473.1C97,472.9 96.9,472.8 96.7,472.6C96.4,472.4 96.2,472.3 96.1,472.1L95.2,471.3C95,471.5 95,471.7 94.9,471.9ZM97.6,470.8L96.4,470.5L96.4,470.6L97.4,471.5L97.6,470.8ZM98.8,472.5C98.8,472.6 98.9,472.7 99,472.8C99.4,473.2 99.8,473.5 100.1,473.7C100.5,474 101,474.1 101.5,474.2L102.5,471.2L98.7,471.2C98.7,471.3 98.7,471.6 98.8,471.9C98.7,472 98.8,472.3 98.8,472.5ZM98.3,474.1L97.9,475.4C98.1,475.4 98.4,475.5 98.7,475.5C99,475.6 99.3,475.6 99.5,475.7C99.6,475.7 99.7,475.8 99.8,475.9C99.9,476 99.9,476.1 99.8,476.2C99.8,476.3 99.7,476.4 99.7,476.5C99.6,476.6 99.6,476.6 99.5,476.7C99.1,476.8 98.8,476.8 98.6,476.8C98.3,476.8 98,476.7 97.7,476.5C97.6,476.7 97.6,476.8 97.6,476.8C97.5,477 97.5,477.2 97.5,477.3C97.5,477.4 97.7,477.6 97.8,477.7C98.3,478 98.8,478.4 99.3,478.7C99.4,478.7 99.4,478.8 99.5,478.9C99.6,479 99.6,479.1 99.6,479.1C99.6,479.4 99.4,479.6 99,479.7C98.7,479.8 98.4,479.8 98.1,479.7L96.9,478.9C96.8,479.3 96.6,480 96.4,480.8C96.2,481.5 96,482.2 95.8,482.7C95.7,482.9 95.7,483.1 95.8,483.2C95.8,483.3 95.9,483.5 96.1,483.6C96.6,484 97,484.3 97.4,484.7C97.6,484.9 97.7,485.1 97.6,485.2C97.6,485.4 97.4,485.5 97.2,485.6C96.7,485.8 96.3,485.7 96,485.5C95.9,485.4 95.7,485.2 95.2,484.9L94,489.3L94,489.5C94.2,489.7 94.8,490.4 95.9,491.4L101.1,475C100.9,475.1 100.8,475.1 100.7,475.2C100.5,475.3 100.4,475.3 100.3,475.3C100.1,475.3 99.9,475.2 99.7,475.1C99.6,475.1 99.4,474.9 99.2,474.8C99.1,474.7 98.9,474.6 98.7,474.5C98.6,474.3 98.4,474.2 98.3,474.1ZM92.5,474.7C92.2,474.4 91.7,474 91.1,473.3C90.5,474.9 90,476 89.9,476.5L89.9,476.7C89.9,476.8 89.9,476.8 90,476.9C90.2,477.1 90.7,477.7 91.6,478.7C92.1,477 92.5,475.8 92.7,475L92.7,474.9C92.6,474.8 92.6,474.8 92.5,474.7ZM93.8,475.9C93.3,477.5 93,478.8 92.7,479.7L92.7,479.9C92.7,480 92.7,480 92.8,480C93.2,480.4 93.8,481.1 94.6,482.1C94.8,481.3 95,480.6 95.1,480.2C95.3,479.5 95.5,478.9 95.6,478.4C95.7,478.2 95.7,478 95.7,477.9C95.7,477.7 95.6,477.6 95.4,477.5C95.2,477.3 94.9,477.1 94.6,476.8C94.2,476.4 94,476.1 93.8,475.9ZM90.9,480.2C90.7,480 90.1,479.3 89.2,478.2C88.5,480 88,481.2 87.8,481.7L87.8,481.9C87.8,482 87.8,482 87.9,482C88.3,482.5 88.9,483.4 89.7,484.5C90.2,482.9 90.6,481.5 90.9,480.5L90.9,480.2ZM86.2,474.7C85.5,476.4 85.1,477.4 85,477.6L85,477.8C85.4,478.4 86,479.3 86.8,480.3L88.1,477L88.1,476.8C87.9,476.7 87.2,475.9 86.2,474.7ZM82.7,479.9L84.6,485.7C85.2,484.1 85.7,482.9 86,482.2L86,481.8C85.7,481.3 85.1,480.5 84.3,479.3C84.3,479.4 84.2,479.5 84.2,479.7C84.1,479.9 84.1,480 84.1,480.1C84,480.3 83.9,480.4 83.8,480.4C83.7,480.4 83.6,480.4 83.4,480.3C83.3,480.2 83.2,480.2 83.1,480C83,479.9 82.9,479.8 82.9,479.7L82.7,479.9ZM86.1,486.2C86,486.5 85.8,486.7 85.7,486.8C85.5,486.8 85.3,486.8 84.9,486.5L85.7,488.8C85.8,488.7 85.9,488.6 85.9,488.6C86.2,488.4 86.4,488.2 86.7,488.3C87,488.3 87.2,488.5 87.4,488.8C87.5,488.9 87.6,489.1 87.8,489.3C87.9,489.4 88,489.6 88.2,489.8C88.4,489.1 88.6,488.6 88.7,488.2C88.9,487.6 89,487.1 89.2,486.7C89.2,486.6 89.3,486.4 89.2,486.3C89.2,486.2 89.1,486.1 89,486C88.9,485.8 88.7,485.6 88.5,485.4C88.3,485.1 88.1,484.9 88,484.8L87.1,483.6C86.5,485.2 86.2,486.1 86.1,486.2ZM85.9,489.4L87.9,495.4C87.9,495.1 88,494.8 88.1,494.7C88.2,494.6 88.4,494.6 88.7,494.5C88.8,494.5 88.9,494.5 89,494.4C89.1,494.3 89.3,494.3 89.4,494.3C89.5,494.3 89.6,494.4 89.7,494.5C89.9,494.7 90,495 90.1,495.2C90.2,495.4 90.1,495.7 89.7,496.1C89.4,496.5 89.1,496.6 88.8,496.6C88.7,496.6 88.5,496.5 88.4,496.3C88.3,496.2 88.3,496.1 88.2,496C88.1,495.9 88.1,495.7 88,495.7L88,495.9C88.2,496.4 88.4,497.1 88.7,498.1C89,499 89.2,499.7 89.5,500.2C89.7,500.7 90.1,501.3 90.6,501.9C90.8,502.2 91.1,502.3 91.3,502.3C91.6,502.3 91.8,502.2 92,501.9C92.2,501.7 92.3,501.6 92.4,501.5C92.5,501.3 92.6,501.2 92.7,501.1C92.9,500.7 93.1,500.1 93.3,499.5C93.6,498.8 93.8,498.2 93.9,497.8C93.5,497.9 93.1,497.8 92.7,497.5C92.4,497.1 92.1,496.8 91.9,496.7C91.8,497 91.7,497.6 91.5,498.2C91.3,498.8 91.2,499.3 91.1,499.7C91.1,499.8 91,499.9 90.9,500C90.8,500.1 90.7,500.2 90.6,500.2C90.5,500.2 90.3,500.2 90.2,500.1C90.1,500 90,499.9 89.9,499.7C89.7,499.2 89.6,498.7 89.8,498.2C90,497.4 90.3,496.4 90.5,495.4C90.6,495.2 90.6,495 90.5,494.9C90.2,494.5 89.6,493.8 88.7,492.5C88.6,492.9 88.5,493.2 88.5,493.3C88.4,493.5 88.3,493.7 88.1,493.8C87.9,493.9 87.7,493.8 87.5,493.6C87.1,493.2 87,492.8 87.1,492.3C87.2,492.1 87.2,491.9 87.2,491.8C87.2,491.6 87.3,491.4 87.3,491.3L87.3,491.1C87.3,491 87.3,490.9 87.2,490.9C87.3,490.9 86.8,490.3 85.9,489.4ZM92.7,485.6C92.4,485.7 92.2,485.8 92.1,485.8C91.9,485.8 91.7,485.8 91.5,485.6C91.4,485.5 91.4,485.4 91.3,485.3C91.1,485.1 91.1,484.9 91.1,484.9C91.1,485 91,485.1 91,485.3C91,485.4 90.9,485.6 90.9,485.6L90.9,486C91.2,486.3 91.8,487.1 92.8,488.2C93.4,485.9 93.9,484.5 94,483.9L94,483.8C94,483.7 94,483.7 93.9,483.7C93.6,483.4 93,482.7 92,481.6L91.2,484.2C91.3,484.2 91.4,484.1 91.6,484C91.7,483.9 91.9,483.9 92,483.9C92.2,483.8 92.5,483.9 92.9,484.2C93.2,484.5 93.4,484.7 93.4,485C93.4,485.2 93.3,485.3 93.1,485.5C93.1,485.4 93,485.5 92.7,485.6ZM90.3,487.6C89.8,489.2 89.5,490.3 89.3,490.9L89.3,491.1C89.3,491.2 89.4,491.2 89.4,491.3C89.6,491.5 90,492 90.6,492.8L91.2,493.6C91.7,492 92,490.9 92.2,490.2L92.2,490C92.2,489.9 92.2,489.9 92.1,489.9C92,489.6 91.4,488.8 90.3,487.6ZM92.5,494.8L92.5,495C92.6,495.1 93.1,495.7 94.2,496.9L95.6,492.7C95.2,492.6 94.9,492.4 94.5,492.1C94.3,491.9 94.2,491.8 94.1,491.7C93.9,491.5 93.8,491.4 93.6,491.3L93.5,491.4C93,493 92.7,494.1 92.5,494.8Z" style="fill-rule:nonzero;"/>
                    <path d="M86,462.2C85.9,462.3 85.7,462.4 85.5,462.4C85.3,462.4 85.1,462.4 84.9,462.2C84.6,462 84.4,461.8 84.2,461.6C83.6,461 82.7,460.8 81.7,461C81.1,461.1 80.7,461.1 80.6,461C80.4,460.9 80.3,460.5 80.3,459.9C80.3,459.5 80.3,459.2 80.2,458.9C80.2,458.7 80.1,458.6 80,458.5C79.9,458.4 79.7,458.4 79.6,458.4L78.9,458.4C78.7,458.4 78.5,458.3 78.4,458.2C78.3,458.1 78.3,457.9 78.3,457.7C78.3,457.4 78.5,457.1 78.7,456.9C78.9,456.7 79.2,456.6 79.5,456.6C80.1,456.6 80.6,456.7 81.1,457.1C81.5,457.5 81.8,458 81.9,458.7L82,459.1L82.6,459.1C83.3,459.1 83.9,459.2 84.5,459.5C85,459.8 85.5,460.2 86,460.8C86.2,461 86.2,461.2 86.2,461.4C86.2,461.8 86.1,462 86,462.2Z" style="fill-rule:nonzero;"/>
                    <path d="M92.3,462.2C92,462.3 91.8,462.3 91.6,462.2C91.4,462.1 91.3,461.9 91.3,461.6C91.3,461.3 91.3,461.1 91.4,460.9C91.5,460.7 91.6,460.5 91.8,460.4C93.2,459.4 94.8,459 96.3,459.1C96.6,459.1 96.8,459.2 96.9,459.4C97.1,459.6 97.1,459.8 97.1,460C97.1,460.2 97,460.4 96.7,460.6C96.5,460.8 96.2,460.9 95.9,461L95.1,461C94.7,460.9 94.4,461 94,461.1C93.7,461.2 93.4,461.4 93.1,461.6C93,461.8 92.7,462 92.3,462.2Z" style="fill-rule:nonzero;"/>
                    <path d="M101,456.8C101.7,456.4 102.5,456.2 103.5,456.1L104,456.1C104.2,456.1 104.3,456.2 104.4,456.4C104.5,456.6 104.5,456.7 104.5,456.9C104.5,457.1 104.4,457.2 104.3,457.3C104.2,457.4 104,457.5 103.9,457.6C103.7,457.7 103.6,457.8 103.4,457.8C102.9,457.8 102.5,457.9 102.1,458.2C101.8,458.4 101.4,458.7 101.1,459.1C101,459.2 100.9,459.3 100.8,459.4C100.6,459.5 100.5,459.6 100.4,459.6C100,459.6 99.7,459.4 99.6,459.1C99.5,458.8 99.5,458.5 99.7,458.2C99.8,457.7 100.3,457.2 101,456.8Z" style="fill-rule:nonzero;"/>
                    <path d="M94.7,453.6L94.8,453.6C94.9,453.6 94.9,453.6 94.9,453.7C95.3,454 95.4,454.4 95.4,454.8C95.4,454.9 95.4,455 95.3,455.1C95.1,455.3 94.9,455.4 94.8,455.5C94.6,455.6 94.5,455.8 94.3,455.8L94.1,455.8C94,455.8 93.9,455.7 93.9,455.7C93.5,455.3 93.2,454.8 93.2,454.3C93.2,454.2 93.2,454.2 93.3,454.1C93.3,454 93.4,454 93.5,453.9C93.6,453.8 93.8,453.8 94,453.7C94.2,453.8 94.4,453.7 94.7,453.6Z" style="fill-rule:nonzero;"/>
                    <path d="M84.7,447.7C84.8,447.8 84.9,448 85,448.4C85.1,448.8 85.1,449 85,449.2C85,449.3 84.9,449.3 84.8,449.4C84.7,449.5 84.7,449.5 84.6,449.5L83.9,449.5C83.6,449.5 83.4,449.5 83.2,449.4C83,449.3 82.9,449.2 82.8,449C82.8,448.8 82.8,448.6 82.9,448.4C83,448.3 83,448.3 83,448.2C83.1,447.9 83.1,447.7 83.2,447.6C83.3,447.5 83.5,447.5 83.8,447.4C83.9,447.4 84,447.5 84.2,447.5C84.5,447.5 84.6,447.6 84.7,447.7Z" style="fill-rule:nonzero;"/>
                    <path d="M80.4,464.7C80.2,464.7 80,464.6 79.8,464.3C79.6,464 79.4,463.8 79.4,463.6C79.4,463.4 79.5,463.2 79.8,463.1C80.1,462.9 80.4,462.9 80.7,462.9C80.9,462.9 81.1,463 81.4,463.3C81.7,463.6 81.8,463.8 81.8,463.9C81.8,464.1 81.6,464.3 81.3,464.4C81.1,464.6 80.8,464.6 80.4,464.7Z" style="fill-rule:nonzero;"/>
                    <path d="M97.6,447.4L96.6,447.4C96.5,447.4 96.3,447.4 96.2,447.3C96,447.2 95.9,447.1 95.9,447C95.9,446.9 95.8,446.7 95.9,446.6C95.9,446.5 96,446.4 96.1,446.3C96.2,446.2 96.3,446.2 96.5,446.2C97,446.2 97.4,446.3 97.7,446.4C97.8,446.4 97.9,446.5 98,446.6C98.1,446.7 98.1,446.8 98.1,447C98.1,447.1 98,447.3 97.9,447.3C97.8,447.4 97.7,447.4 97.6,447.4Z" style="fill-rule:nonzero;"/>
                    <path d="M103.5,461.8C103.7,461.8 103.8,461.9 103.9,462C104,462.1 104,462.2 104.1,462.4L104.1,462.8C104.1,462.9 104,462.9 103.8,463C103.7,463 103.5,463.1 103.3,463.2C103.1,463.3 103,463.3 102.8,463.2C102.7,463.2 102.6,463 102.5,462.8C102.4,462.5 102.4,462.3 102.8,462.1C102.9,462.1 103,462 103.2,462C103.2,461.9 103.3,461.9 103.5,461.8Z" style="fill-rule:nonzero;"/>
                    <path d="M82.3,473.6C82.2,473.5 82.1,473.4 82.1,473.3C82,473.2 82,473.1 82,473L82,472.7C82,472.6 82.1,472.5 82.1,472.4C82.3,472.3 82.6,472.2 83,472.1C83.1,472.1 83.2,472.1 83.3,472.2C83.4,472.3 83.4,472.4 83.5,472.5C83.6,472.7 83.5,472.9 83.3,473C83.2,473.1 83,473.1 82.9,473.2C82.7,473.5 82.5,473.6 82.3,473.6Z" style="fill-rule:nonzero;"/>
                </g>
            </g>
        </g>
    </g>
</svg>
