<?xml version="1.0" encoding="UTF-8" standalone="no"?>
<!DOCTYPE svg PUBLIC "-//W3C//DTD SVG 1.1//EN" "http://www.w3.org/Graphics/SVG/1.1/DTD/svg11.dtd">
<svg width="100%" height="100%" viewBox="0 0 181 94" version="1.1" xmlns="http://www.w3.org/2000/svg" xmlns:xlink="http://www.w3.org/1999/xlink" xml:space="preserve" xmlns:serif="http://www.serif.com/" style="fill-rule:evenodd;clip-rule:evenodd;stroke-linejoin:round;stroke-miterlimit:2;">
    <g id="Artboard1" transform="matrix(0.782238,0,0,0.96356,-207.434,-2.71956)">
        <rect x="265.18" y="2.822" width="230.197" height="97.183" style="fill:none;"/>
        <g id="Layer_3" transform="matrix(1.27838,0,0,1.03782,-55.2268,-151.812)">
            <g>
                <path d="M423.6,183.8C424.6,184.8 425,185.9 425,187.4C425,188.8 424.5,190 423.6,190.9C422.7,191.9 421.5,192.4 420,192.4C418.6,192.4 417.4,191.9 416.4,190.9C415.4,190 414.9,188.8 414.9,187.4C414.9,186 415.4,184.8 416.4,183.8C417.4,182.8 418.6,182.4 420,182.4C421.5,182.4 422.7,182.8 423.6,183.8ZM422.1,185.9C422.1,186.3 422,186.6 421.7,186.8C421.5,187.1 421.2,187.2 420.8,187.3L421.6,188.5C422.1,189.1 422.5,189.5 422.6,189.7L422.6,189.9L421.4,189.9C421.2,189.9 421,189.6 420.7,189.1C420.2,188.1 419.9,187.6 419.8,187.5L419.3,187.5L419.3,189.4C419.4,189.5 419.6,189.5 419.9,189.5L419.9,189.8L417.4,189.8L417.4,189.5C417.8,189.5 418,189.5 418,189.4L418,184.8C417.9,184.7 417.7,184.7 417.4,184.7L417.4,184.4L420.3,184.4C420.8,184.4 421.2,184.5 421.4,184.7C422,185.2 422.1,185.5 422.1,185.9ZM422.9,184.4C422.1,183.5 421.2,183.1 420.1,183.1C419,183.1 418,183.5 417.2,184.4C416.4,185.2 416.1,186.2 416.1,187.4C416.1,188.6 416.5,189.6 417.2,190.4C418,191.3 419,191.7 420.1,191.7C421.2,191.7 422.1,191.3 422.9,190.4C423.7,189.6 424.1,188.6 424.1,187.4C424.1,186.2 423.7,185.2 422.9,184.4ZM419.5,184.9L419.5,187.3L420,187.3C420.6,187.3 420.9,186.9 420.9,186C420.9,185.3 420.6,184.9 420,184.9L419.5,184.9ZM368.1,164.6L368,165.1C367.6,166.9 366.6,167.7 365.1,167.3C364.1,167.1 363.6,166.5 363.7,165.6C363,166.3 361.9,166.5 360.6,166.2C359.9,166 359.4,165.7 359,165.3C358.6,164.8 358.5,164.2 358.7,163.4C359,162.2 360.1,161.6 361.8,161.6C363.6,161.6 364.6,161.3 364.8,160.5C365,159.6 364.5,159 363.3,158.7C363,158.6 362.7,158.6 362.4,158.6C362,158.6 361.8,158.7 361.5,158.9C362.3,159 362.6,159.4 362.4,160C362.2,160.7 361.8,160.9 361,160.8C360.6,160.7 360.4,160.5 360.2,160.2C360,159.9 359.9,159.6 360.1,159.2C360.3,158.4 360.9,158 361.7,157.8C362.4,157.7 363.1,157.7 364,158C365.1,158.3 365.9,158.7 366.4,159.3C366.8,159.9 366.9,160.5 366.8,161.3L365.8,165.5C365.7,165.9 365.8,166.1 366.1,166.1C366.4,166.2 366.6,165.8 366.9,164.9L367,164.3L368.1,164.6ZM373.8,168.6C374.2,168.8 374.6,168.6 374.8,168.2L376.4,164.1C376.5,163.6 376.4,163.3 376,163.2L375.1,162.8L375.5,161.7L379,163.1L378.5,164.4C379.1,164 379.5,163.8 379.9,163.7C380.3,163.6 380.7,163.6 381.2,163.8C381.7,164 382.1,164.3 382.3,164.8C382.6,165.3 382.6,165.8 382.4,166.3C382.2,166.7 382,167 381.7,167.2C381.4,167.4 381,167.4 380.6,167.3C380.3,167.2 380.1,167 379.9,166.7C379.8,166.4 379.8,166.1 379.8,165.8C379.9,165.5 380.1,165.3 380.4,165.2C380.7,165.1 381,165.1 381.3,165.3C381.2,165.1 381,164.9 380.7,164.8C380.1,164.5 379.4,164.6 378.8,165C378.3,165.4 377.9,165.9 377.7,166.5L376.6,169.3C376.4,169.7 376.6,170 377,170.2L378,170.6L377.6,171.7L372.5,169.6L372.9,168.5L373.8,168.6ZM352.5,157.3C353,158.1 353.2,159.1 353,160.2C352.9,161.7 352.5,162.8 351.8,163.5C351.1,164.2 350.2,164.5 348.9,164.4C348.3,164.4 347.9,164.2 347.5,164C347.1,163.8 346.7,163.4 346.4,162.9L345.6,163.8L344.5,163.7L345.4,153.9C345.4,153.4 345.2,153.2 344.8,153.1L344.1,153L344.2,151.9L347.6,152.3L347.2,156.7C347.9,155.9 348.7,155.5 349.7,155.6C351.1,155.8 352,156.4 352.5,157.3ZM349.2,157C348,156.9 347.3,157.8 347.1,159.8C347,160.9 347.1,161.7 347.2,162.1C347.4,162.6 347.9,162.8 348.6,162.9C349.8,163 350.5,162.1 350.7,160.1C350.8,159 350.7,158.2 350.6,157.8C350.3,157.4 349.9,157.1 349.2,157ZM361.1,163.9C360.9,164.6 361.2,165 361.9,165.2C362.4,165.3 362.9,165.2 363.3,164.9C363.7,164.6 364,164.1 364.2,163.6L364.5,162.5L362.5,162.9C362.2,163 361.9,163.1 361.7,163.2C361.4,163.2 361.2,163.5 361.1,163.9ZM327.6,160.2L322.1,161C322.2,161.8 322.4,162.4 322.7,162.9C323.1,163.5 323.7,163.7 324.4,163.5C325.6,163.4 326.2,162.7 326.3,161.4L327.8,161.1C327.9,163.2 326.8,164.5 324.5,164.8C323.2,165 322.1,164.8 321.3,164.1C320.5,163.5 320,162.4 319.8,161C319.6,159.7 319.8,158.6 320.4,157.7C321,156.8 322,156.2 323.2,156C324.5,155.8 325.6,156.2 326.5,157.1C327.1,158.1 327.5,159.1 327.6,160.2ZM311.6,159.2C312.4,159.5 312.9,160 313.1,160.7C313.2,161.1 313.2,161.4 313,161.8C312.9,162.2 312.6,162.4 312.2,162.5C311.9,162.6 311.6,162.6 311.2,162.5C310.9,162.4 310.7,162.2 310.6,161.9C310.4,161.2 310.7,160.8 311.3,160.5C310.9,160.2 310.3,160.1 309.5,160.3C308.7,160.5 308.2,161 308,161.8C307.8,162.4 307.9,163.1 308.1,163.9C308.3,164.7 308.6,165.3 309,165.8C309.6,166.4 310.3,166.5 311.1,166.3C311.6,166.2 312,165.9 312.2,165.4C312.4,164.9 312.5,164.3 312.3,163.7L313.6,163.3C314.1,165.7 313.2,167.2 311,167.8C309.7,168.2 308.6,168.1 307.7,167.5C306.8,167 306.2,166 305.8,164.7C305.5,163.5 305.6,162.3 306.2,161.3C306.8,160.3 307.7,159.7 308.8,159.4C309.9,158.9 310.8,158.9 311.6,159.2ZM321.9,159.9L325.2,159.4C325,158 324.4,157.3 323.3,157.4C322.2,157.6 321.8,158.4 321.9,159.9ZM296,160.5C296.3,160.6 296.5,160.8 296.6,161.1C296.8,161.4 296.8,161.7 296.6,162.1C296.5,162.4 296.2,162.6 296,162.8C295.7,162.9 295.3,162.9 295,162.8C294.7,162.6 294.5,162.4 294.4,162.1C294.2,161.8 294.2,161.4 294.4,161.1C294.5,160.8 294.8,160.5 295,160.4C295.3,160.3 295.6,160.3 296,160.5ZM297.5,163.3L300,169.2C300.2,169.6 300.5,169.8 301,169.6L301.8,169.3L302.2,170.4L297.4,172.4L297,171.3L297.8,171C298.2,170.8 298.4,170.5 298.2,170.1L296.4,166C296.3,165.6 296,165.4 295.5,165.6L294.7,165.9L294.2,164.8L297.5,163.3Z" style="fill:rgb(10,12,9);fill-rule:nonzero;"/>
            </g>
        </g>
        <g transform="matrix(1.27838,0,0,1.03782,-55.2268,-151.812)">
            <path d="M280,179.6L280,180.4C278.9,180.5 278.1,180.6 277.4,180.8C276.8,181 276.2,181.4 275.6,181.9C274.8,182.6 274.3,183.5 274,184.7C273.7,185.8 273.6,187.6 273.6,190L273.6,220C273.6,223 273.4,225.4 273,227C272.6,228.6 271.9,230 270.8,231.2C269.7,232.3 268.3,233.3 266.5,234C264.7,234.7 262.8,235.1 260.9,235.1C259.8,235.1 258.7,235 257.6,234.7C256.5,234.4 255.7,234.1 255,233.6C253.8,232.8 253.2,231.7 253.2,230.4C253.2,229.6 253.4,228.9 253.9,228.4C254.4,227.9 255,227.6 255.7,227.6C256.4,227.6 257,227.9 257.5,228.4C257.7,228.7 258,229 258.1,229.4C258.3,229.8 258.6,230.5 258.9,231.6C259.2,232.6 259.6,233.3 260.1,233.7C260.6,234.1 261.2,234.3 261.9,234.3C262.9,234.3 263.7,234 264.4,233.3C265.1,232.6 265.7,231.6 266,230.3C266.5,228.5 266.8,225 266.8,219.9L266.8,190C266.8,188.6 266.7,187.3 266.5,186.2C266.3,184.7 265.8,183.6 265,182.8C263.8,181.4 262.2,180.7 260.2,180.5L260.2,179.7L280,179.7L280,179.6Z" style="fill-rule:nonzero;"/>
            <path d="M303.6,226.1C303.3,224.7 303.2,223.3 303.2,221.9C300.7,224.7 297.7,226.1 294.2,226.1C291.7,226.1 289.7,225.4 288.1,224.1C286.6,222.8 285.9,220.9 285.9,218.4L285.9,204.1C285.9,202.6 285.8,201.5 285.7,200.8C285.5,200.1 285.2,199.5 284.8,199C284.2,198.4 283.2,197.9 281.7,197.7L281.7,197L290.6,197L290.6,214C290.6,216.4 290.7,218.2 290.8,219.3C291,220.5 291.2,221.4 291.6,222.1C292,222.9 292.7,223.5 293.5,223.9C294.3,224.3 295.2,224.6 296.3,224.6C297.4,224.6 298.5,224.4 299.5,223.9C300.5,223.4 301.3,222.7 301.8,221.9C302.4,221 302.8,220 303,218.9C303.2,217.8 303.3,215.9 303.3,213.3L303.3,204.2C303.3,202.7 303.2,201.6 303.1,200.9C302.9,200.2 302.6,199.6 302.2,199.1C301.6,198.5 300.6,198 299.1,197.8L299.1,197.1L308,197.1L308,215.3C308,217.6 308.1,219.2 308.2,220.1C308.3,221 308.5,221.8 308.8,222.4C309.2,223 309.6,223.5 310.1,223.8C310.6,224.1 311.3,224.3 312.2,224.3L312.2,225L303.6,226.1Z" style="fill-rule:nonzero;"/>
            <path d="M322.2,196.4C322.6,198 322.8,199.5 322.9,201.1C324.2,199.6 325.6,198.4 327.2,197.6C328.8,196.8 330.4,196.4 332.1,196.4C334,196.4 335.6,196.9 336.8,198C337.6,198.6 338.4,199.8 339.4,201.4C340.9,199.7 342.5,198.4 344,197.6C345.6,196.8 347.2,196.4 349,196.4C351.4,196.4 353.4,197.1 354.9,198.6C356.4,200.1 357.2,202 357.2,204.4L357.2,218.4C357.2,219.9 357.3,221 357.4,221.7C357.6,222.4 357.9,223 358.3,223.5C358.9,224.1 359.9,224.6 361.4,224.9L361.4,225.6L348,225.6L348,224.9C349.2,224.7 350.1,224.5 350.6,224.1C351.1,223.8 351.5,223.2 351.9,222.4C352.1,221.9 352.3,221.1 352.4,220.1C352.5,219.1 352.5,217.6 352.5,215.6L352.5,209.2C352.5,206.7 352.4,204.9 352.3,203.8C352.2,202.7 351.9,201.7 351.5,200.9C350.6,199 348.9,198 346.6,198C344.1,198 342.3,199 341.2,201.1C340.2,202.9 339.7,205.6 339.7,209.4L339.7,218.4C339.7,219.9 339.8,221 339.9,221.7C340,222.4 340.4,223 340.8,223.5C341.4,224.1 342.4,224.6 343.9,224.9L343.9,225.6L330.5,225.6L330.5,224.9C331.7,224.7 332.6,224.5 333.1,224.1C333.6,223.8 334,223.2 334.4,222.4C334.6,221.9 334.8,221.1 334.9,220.1C335,219.1 335,217.6 335,215.6L335,209.4C335,206.8 334.9,204.9 334.8,203.6C334.6,202.4 334.4,201.4 333.9,200.6C333.5,199.8 332.8,199.2 332,198.7C331.2,198.2 330.3,198 329.3,198C328.2,198 327.1,198.3 326.1,198.9C325.1,199.5 324.3,200.3 323.7,201.3C323.2,202.2 322.8,203.3 322.5,204.6C322.3,205.9 322.2,207.5 322.2,209.6L322.2,218.2C322.2,219.7 322.3,220.8 322.4,221.5C322.6,222.2 322.9,222.8 323.3,223.3C323.9,223.9 324.9,224.4 326.4,224.7L326.4,225.4L313,225.4L313,224.7C314.2,224.5 315.1,224.3 315.6,223.9C316.1,223.6 316.5,223 316.9,222.2C317.1,221.7 317.3,220.9 317.4,219.9C317.5,218.9 317.5,217.4 317.5,215.4L317.5,207.1C317.5,204.8 317.4,203.2 317.3,202.3C317.2,201.4 317,200.6 316.6,200C316.3,199.4 315.8,198.9 315.4,198.6C314.9,198.3 314.2,198.1 313.3,198.1L313.3,197.4L322.2,196.4Z" style="fill-rule:nonzero;"/>
            <path d="M372.4,222.7L372.4,231.2C372.4,232.7 372.5,233.8 372.6,234.5C372.8,235.2 373.1,235.8 373.5,236.3C374.1,236.9 375.1,237.3 376.6,237.6L376.6,238.3L363.2,238.3L363.2,237.6C364.4,237.4 365.3,237.2 365.8,236.9C366.3,236.6 366.7,236 367.1,235.3C367.3,234.8 367.5,234 367.6,233C367.7,231.9 367.7,230.4 367.7,228.5L367.7,205.3C367.7,202.8 367.3,201 366.6,199.9C365.9,198.8 364.7,198.3 363,198.3L363,197.5L371.8,196.1C372,197.2 372.1,198.2 372.1,199.1L372.1,199.7C373.6,198.6 375,197.8 376.3,197.3C377.6,196.8 379,196.6 380.6,196.6C383.7,196.6 386.3,197.6 388.5,199.7C389.9,201 390.9,202.6 391.7,204.6C392.4,206.5 392.8,208.7 392.8,211.1C392.8,213.5 392.4,215.8 391.6,217.9C390.8,220 389.7,221.7 388.2,223.1C385.9,225.3 383.2,226.4 380,226.4C378.5,226.4 377.2,226.2 376.1,225.7C375.1,224.9 373.8,224 372.4,222.7ZM372.4,211.5C372.4,214.6 372.5,216.9 372.8,218.5C373.1,220.1 373.5,221.3 374.1,222.3C374.7,223.2 375.4,223.8 376.3,224.3C377.2,224.8 378.1,225.1 379.1,225.1C381.2,225.1 383.1,224 384.7,221.7C385.7,220.4 386.4,218.8 386.9,216.9C387.4,215.1 387.7,213.1 387.7,211.2C387.7,209.3 387.5,207.4 387,205.5C386.5,203.7 385.8,202.1 384.9,200.7C383.4,198.4 381.6,197.3 379.4,197.3C378.3,197.3 377.3,197.6 376.4,198.2C375.5,198.8 374.7,199.6 374.1,200.6C373.5,201.7 373,203 372.8,204.6C372.5,206.3 372.4,208.6 372.4,211.5Z" style="fill-rule:nonzero;"/>
            <path d="M404.8,222.7L404.8,231.2C404.8,232.7 404.9,233.8 405,234.5C405.2,235.2 405.5,235.8 405.9,236.3C406.5,236.9 407.5,237.3 409,237.6L409,238.3L395.6,238.3L395.6,237.6C396.8,237.4 397.7,237.2 398.2,236.9C398.7,236.6 399.1,236 399.5,235.3C399.7,234.8 399.9,234 400,233C400.1,231.9 400.1,230.4 400.1,228.5L400.1,205.3C400.1,202.8 399.7,201 399,199.9C398.3,198.8 397.1,198.3 395.4,198.3L395.4,197.5L404.2,196.1C404.4,197.2 404.5,198.2 404.5,199.1L404.5,199.7C406,198.6 407.4,197.8 408.7,197.3C410,196.8 411.4,196.6 413,196.6C416.1,196.6 418.7,197.6 420.9,199.7C422.3,201 423.3,202.6 424.1,204.6C424.8,206.5 425.2,208.7 425.2,211.1C425.2,213.5 424.8,215.8 424,217.9C423.2,220 422.1,221.7 420.6,223.1C418.3,225.3 415.6,226.4 412.4,226.4C410.9,226.4 409.6,226.2 408.5,225.7C407.5,224.9 406.2,224 404.8,222.7ZM404.8,211.5C404.8,214.6 404.9,216.9 405.2,218.5C405.5,220.1 405.9,221.3 406.5,222.3C407.1,223.2 407.8,223.8 408.7,224.3C409.6,224.8 410.5,225.1 411.5,225.1C413.6,225.1 415.5,224 417.1,221.7C418.1,220.4 418.8,218.8 419.3,216.9C419.8,215.1 420.1,213.1 420.1,211.2C420.1,209.3 419.9,207.4 419.4,205.5C418.9,203.7 418.2,202.1 417.3,200.7C415.8,198.4 414,197.3 411.8,197.3C410.7,197.3 409.7,197.6 408.8,198.2C407.9,198.8 407.1,199.6 406.5,200.6C405.9,201.7 405.4,203 405.2,204.6C404.9,206.3 404.8,208.6 404.8,211.5Z" style="fill-rule:nonzero;"/>
        </g>
    </g>
</svg>
