<?xml version="1.0" encoding="UTF-8" standalone="no"?>
<!DOCTYPE svg PUBLIC "-//W3C//DTD SVG 1.1//EN" "http://www.w3.org/Graphics/SVG/1.1/DTD/svg11.dtd">
<svg width="100%" height="100%" viewBox="0 0 28 17" version="1.1" xmlns="http://www.w3.org/2000/svg" xmlns:xlink="http://www.w3.org/1999/xlink" xml:space="preserve" xmlns:serif="http://www.serif.com/" style="fill-rule:evenodd;clip-rule:evenodd;stroke-linejoin:round;stroke-miterlimit:2;">
    <g id="Layer_1">
    </g>
    <g id="Layer_1_1_">
    </g>
    <g transform="matrix(0.857018,0,0,0.875171,-132.827,-351.121)">
        <rect id="Artboard1" x="154.987" y="401.202" width="31.946" height="18.706" style="fill:none;"/>
        <g id="Artboard11" serif:id="Artboard1">
            <g id="Layer_3">
            </g>
            <g id="Layer_1_2_" transform="matrix(1.16684,0,0,1.14263,19.2228,-225.777)">
                <g>
                    <g>
                        <path d="M139.1,555.8C139.7,556.5 140,557.3 140,558.2C140,559.1 139.7,559.9 139.1,560.5C138.5,561.2 137.7,561.5 136.7,561.5C135.8,561.5 135,561.2 134.4,560.5C133.8,559.9 133.5,559.1 133.5,558.2C133.5,557.3 133.8,556.5 134.4,555.8C135,555.2 135.8,554.9 136.7,554.9C137.7,554.9 138.5,555.2 139.1,555.8ZM137.4,557.4C137.6,557.6 137.7,557.9 137.7,558.2C137.7,558.5 137.6,558.8 137.4,559C137.2,559.2 136.9,559.3 136.6,559.3C136.3,559.3 136,559.2 135.8,559C135.6,558.8 135.4,558.5 135.4,558.2C135.4,557.9 135.5,557.6 135.8,557.4C136,557.2 136.2,557.1 136.6,557.1C136.9,557.1 137.2,557.2 137.4,557.4ZM138.4,559.8C138.8,559.4 139,558.8 139,558.2C139,557.6 138.8,557 138.4,556.6C137.9,556.1 137.4,555.9 136.8,555.9C136.2,555.9 135.7,556.1 135.2,556.6C134.8,557 134.6,557.6 134.6,558.2C134.6,558.8 134.8,559.4 135.2,559.8C135.7,560.3 136.2,560.5 136.8,560.5C137.4,560.5 137.9,560.3 138.4,559.8ZM122.2,557.5C122.4,557.3 122.7,557.1 123,557.1C123.3,557.1 123.6,557.2 123.8,557.5C124,557.7 124.2,558 124.2,558.3C124.2,558.6 124.1,558.9 123.8,559.1C123.6,559.3 123.4,559.4 123,559.4C122.6,559.4 122.4,559.3 122.2,559.1C122,558.9 121.9,558.6 121.9,558.3C121.9,558 122,557.7 122.2,557.5ZM125.5,555.9C126.1,556.5 126.4,557.3 126.4,558.2C126.4,559.1 126.1,559.9 125.5,560.6C124.8,561.2 124.1,561.6 123.1,561.6C122.1,561.6 121.4,561.3 120.8,560.6C120.1,560 119.8,559.2 119.8,558.2C119.8,557.3 120.1,556.5 120.8,555.9C121.4,555.2 122.2,554.9 123.1,554.9C124,554.9 124.8,555.2 125.5,555.9ZM125.4,558.2C125.4,557.6 125.2,557 124.7,556.6C124.3,556.2 123.7,556 123.1,556C122.5,556 121.9,556.2 121.5,556.6C121.1,557 120.9,557.6 120.9,558.2C120.9,558.8 121.1,559.4 121.5,559.8C121.9,560.3 122.5,560.5 123.1,560.5C123.7,560.5 124.3,560.3 124.7,559.8C125.2,559.4 125.4,558.8 125.4,558.2ZM127.1,554.3C126,553.2 124.7,552.7 123.2,552.7C121.7,552.7 120.4,553.2 119.3,554.3C118.2,555.4 117.7,556.7 117.7,558.2C117.7,559.7 118.2,561 119.3,562C120.4,563.1 121.7,563.6 123.2,563.6C124.7,563.6 126,563.1 127.1,562C128.2,560.9 128.7,559.7 128.7,558.2C128.7,556.7 128.2,555.4 127.1,554.3ZM140.6,554.3C139.5,553.2 138.2,552.7 136.7,552.7C135.2,552.7 133.9,553.2 132.8,554.3C131.7,555.4 131.2,556.7 131.2,558.2C131.2,559.7 131.7,561 132.8,562C133.9,563.1 135.2,563.6 136.7,563.6C138.2,563.6 139.5,563.1 140.6,562C141.7,560.9 142.2,559.7 142.2,558.2C142.3,556.7 141.7,555.4 140.6,554.3ZM136.6,551.5C136.1,551.3 135.6,551.1 135,551L130,550.2L127.3,550.4C127,550.4 126.7,550.5 126.4,550.6C125.2,550.8 124.2,551.1 123.2,551.6L125.8,552.1C126.6,552.4 127.4,552.9 128.1,553.6C129.2,554.8 129.9,556.1 130,557.7L130,558.3C130,556.5 130.7,554.9 131.9,553.7C132.5,553.1 133.2,552.6 134,552.2L136.6,551.5ZM143.6,551.5C143.3,551.9 143,552.4 142.7,552.9C142.5,553.4 142.3,553.8 142.3,554.2C143.2,555.4 143.6,556.7 143.6,558.2C143.6,560.1 142.9,561.7 141.6,563C140.3,564.3 138.7,564.9 136.8,564.9C135.8,564.9 134.8,564.7 133.9,564.3C133,563.9 132.3,563.3 131.6,562.4C131.3,562.9 130.8,563.6 130.1,564.6C130,564.4 129.8,564.1 129.5,563.6C129.1,563.1 128.8,562.7 128.6,562.4C128,563.2 127.2,563.8 126.3,564.3C125.4,564.7 124.4,564.9 123.4,564.9C121.5,564.9 119.9,564.3 118.6,563C117.3,561.7 116.6,560.1 116.6,558.2C116.6,556.7 117,555.4 117.9,554.2C117.8,553.8 117.7,553.4 117.5,552.9C117.2,552.4 116.9,551.9 116.6,551.5L120.9,551.5C122.1,550.7 123.5,550.1 125.1,549.6C126.7,549.1 128.4,548.9 130.2,548.9C132,548.9 133.6,549.1 135.3,549.6C136.8,550 138.2,550.7 139.4,551.5L143.6,551.5Z" style="fill:white;fill-rule:nonzero;"/>
                    </g>
                </g>
            </g>
        </g>
    </g>
</svg>
