<?xml version="1.0" encoding="UTF-8" standalone="no"?>
<!DOCTYPE svg PUBLIC "-//W3C//DTD SVG 1.1//EN" "http://www.w3.org/Graphics/SVG/1.1/DTD/svg11.dtd">
<svg width="100%" height="100%" viewBox="0 0 19 19" version="1.1" xmlns="http://www.w3.org/2000/svg" xmlns:xlink="http://www.w3.org/1999/xlink" xml:space="preserve" xmlns:serif="http://www.serif.com/" style="fill-rule:evenodd;clip-rule:evenodd;stroke-linejoin:round;stroke-miterlimit:2;">
    <g id="Layer_1">
    </g>
    <g id="Layer_1_1_">
    </g>
    <g transform="matrix(0.952051,0,0,1.013,-57.7211,-406.235)">
        <rect id="Artboard1" x="60.628" y="401.021" width="19.195" height="18.042" style="fill:none;"/>
        <g id="Artboard11" serif:id="Artboard1">
            <g id="Layer_3">
            </g>
            <g id="Layer_1_2_" transform="matrix(1.05036,0,0,0.987167,38.725,-139.82)">
                <g>
                    <g>
                        <path d="M38.3,548.7C38.7,549.2 39,549.7 39,550.3L39,563.7C39,564.3 38.8,564.9 38.3,565.3C37.8,565.8 37.3,566 36.6,566L23.3,566C22.7,566 22.1,565.8 21.7,565.3C21.2,564.8 21,564.3 21,563.7L21,550.3C21,549.7 21.2,549.1 21.7,548.7C22.1,548.3 22.7,548 23.3,548L36.7,548C37.3,548 37.9,548.2 38.3,548.7ZM33.3,550.8L33.3,552.8C33.3,553 33.4,553.2 33.5,553.3C33.7,553.5 33.8,553.6 34.1,553.6L36.2,553.6C36.4,553.6 36.6,553.5 36.8,553.3C36.9,553.1 37,552.9 37,552.8L37,550.8C37,550.6 36.9,550.4 36.8,550.2C36.6,550 36.4,549.9 36.2,549.9L34.1,549.9C33.9,549.9 33.7,550 33.5,550.2C33.4,550.4 33.3,550.6 33.3,550.8ZM27.5,554.5C26.8,555.2 26.4,556 26.4,557C26.4,558 26.8,558.8 27.5,559.5C28.2,560.2 29,560.5 30.1,560.5C31.1,560.5 31.9,560.1 32.6,559.5C33.3,558.8 33.7,558 33.7,557C33.7,556.1 33.3,555.2 32.6,554.5C31.9,553.8 31.1,553.5 30.1,553.5C29,553.5 28.2,553.8 27.5,554.5ZM23,555.5L23,563.1C23,563.3 23.1,563.4 23.2,563.6C23.4,563.7 23.5,563.8 23.7,563.8L36.2,563.8C36.4,563.8 36.6,563.7 36.7,563.6C36.9,563.4 37,563.3 37,563.1L37,555.5L35.4,555.5C35.5,556 35.6,556.6 35.6,557.1C35.6,558.6 35.1,559.9 34,560.9C32.9,562 31.6,562.5 30.1,562.5C28.5,562.5 27.2,562 26.2,560.9C25.1,559.9 24.5,558.6 24.5,557.1C24.5,556.6 24.6,556 24.7,555.5L23,555.5Z" style="fill:white;fill-rule:nonzero;"/>
                    </g>
                </g>
            </g>
        </g>
    </g>
</svg>
