<?xml version="1.0" encoding="UTF-8" standalone="no"?>
<!DOCTYPE svg PUBLIC "-//W3C//DTD SVG 1.1//EN" "http://www.w3.org/Graphics/SVG/1.1/DTD/svg11.dtd">
<svg width="100%" height="100%" viewBox="0 0 13 21" version="1.1" xmlns="http://www.w3.org/2000/svg" xmlns:xlink="http://www.w3.org/1999/xlink" xml:space="preserve" xmlns:serif="http://www.serif.com/" style="fill-rule:evenodd;clip-rule:evenodd;stroke-linejoin:round;stroke-miterlimit:2;">
    <g id="Layer_1">
    </g>
    <g id="Layer_1_1_">
    </g>
    <g transform="matrix(0.938743,0,0,0.95885,-106.688,-382.994)">
        <rect id="Artboard1" x="113.65" y="399.431" width="13.62" height="20.939" style="fill:none;"/>
        <g id="Artboard11" serif:id="Artboard1">
            <g id="Layer_3">
            </g>
            <g id="Layer_1_2_" transform="matrix(1.06525,0,0,1.04292,35.2407,-170.965)">
                <g>
                    <g>
                        <path d="M82.3,555.5C82.9,554.9 83.2,554.1 83.2,553.2C83.2,552.3 82.9,551.6 82.3,551C81.7,550.4 81,550.1 80,550.1C79.2,550.1 78.4,550.4 77.8,551C77.2,551.6 76.9,552.4 76.9,553.2C76.9,554.1 77.2,554.8 77.8,555.5C78.4,556.1 79.2,556.4 80,556.4C80.9,556.5 81.7,556.2 82.3,555.5ZM84.5,548.8C85.7,550 86.3,551.5 86.3,553.3C86.3,554.8 85.3,557.5 83.2,561.4C82.1,563.4 81.1,565.3 80,566.9C79,565.2 77.9,563.4 76.9,561.4C74.8,557.4 73.7,554.7 73.7,553.3C73.7,551.6 74.3,550.1 75.5,548.8C76.7,547.6 78.2,547 79.9,547C81.8,547 83.3,547.6 84.5,548.8Z" style="fill:white;fill-rule:nonzero;"/>
                    </g>
                </g>
            </g>
        </g>
    </g>
</svg>
