<?xml version="1.0" encoding="utf-8"?>
<!-- Generator: Adobe Illustrator 19.1.0, SVG Export Plug-In . SVG Version: 6.00 Build 0)  -->
<svg version="1.1" id="Calque_1" xmlns="http://www.w3.org/2000/svg" xmlns:xlink="http://www.w3.org/1999/xlink" x="0px" y="0px"
	 viewBox="-40 147 530 500" style="enable-background:new -40 147 530 500;" xml:space="preserve">
<style type="text/css">
	.st0{fill:#1A171B;}
	.st1{fill:none;stroke:#1A171B;stroke-width:1.5;stroke-linecap:round;stroke-linejoin:round;stroke-miterlimit:3;}
	.st2{fill:#FFFFFF;}
	.st3{fill:none;stroke:#FFFFFF;stroke-width:1.5;stroke-linecap:round;stroke-linejoin:round;stroke-miterlimit:3;}
	.st4{fill:#0A0C09;}
</style>
<g id="Layer_1">
	<g>
		<g>
			<polygon class="st0" points="261.3,328.6 266.7,329.1 266.6,330.2 259.9,329.6 260.9,323 262.1,323.2 261.2,328.6 			"/>
			<path class="st1" d="M261.3,328.6c11.1-8.6,13.4-16.9,6.7-24.7c-3.3-4-7.8-7.1-13.4-9.3"/>
		</g>
	</g>
	<g>
		<g>
			<polygon class="st0" points="300.8,313.6 300.4,319.1 299.3,319 299.8,312.3 306.5,313.3 306.3,314.4 300.8,313.6 			"/>
			<path class="st1" d="M300.8,313.6c8.6,11.1,16.9,13.4,24.7,6.7c4-3.3,7.1-7.8,9.3-13.4"/>
		</g>
	</g>
	<g>
		<g>
			<polygon class="st0" points="370.5,297.9 365,297.4 365.1,296.3 371.8,296.9 370.8,303.6 369.7,303.4 370.5,297.9 			"/>
			<path class="st1" d="M370.5,297.9c-11.1,8.6-13.4,16.9-6.7,24.7c3.3,4,7.8,7.1,13.4,9.3"/>
		</g>
	</g>
	<g>
		<g>
			<polygon class="st0" points="431.6,312.9 432.1,307.4 433.2,307.5 432.6,314.2 426,313.2 426.2,312.1 431.6,312.9 			"/>
			<path class="st1" d="M431.6,312.9c-8.6-11.1-16.9-13.4-24.7-6.7c-4,3.3-7.1,7.8-9.3,13.4"/>
		</g>
	</g>
	<g>
		<g>
			<polygon class="st0" points="317.1,382.8 316.1,377.8 317.3,377.5 318.5,384.2 318.4,384.2 311.8,385 311.6,383.8 317.1,383.2 
				317.1,383.1 			"/>
			<path class="st1" d="M317.1,382.8c-7.4-4.3-13.4-4.6-18.1-0.9c-0.7,0.5-1.4,1.2-2,1.9"/>
		</g>
	</g>
	<g>
		<g>
			<polygon class="st0" points="248.1,377.5 249.3,377.8 248.3,382.8 248.3,383.1 248.3,383.2 253.8,383.8 253.6,385 247,384.2 
				247,384.2 			"/>
			<path class="st1" d="M248.3,382.8c7.4-4.3,13.4-4.6,18.1-0.9c0.7,0.5,1.4,1.2,2,1.9"/>
		</g>
	</g>
	<g>
		<g>
			<path class="st2" d="M437.1,382.8l-0.9-5l1.1-0.2l1.2,6.7h0l-6.6,0.8l-0.1-1.2l5.5-0.6v-0.1L437.1,382.8z M368.1,377.5l1.1,0.2
				l-1,5l0,0.4v0l5.5,0.6l-0.1,1.1l-6.6-0.8h0L368.1,377.5z"/>
			<path class="st3" d="M437.1,382.8c-7.4-4.3-13.4-4.6-18.1-0.9c-0.7,0.5-1.4,1.2-2,1.9 M368.3,382.8c7.4-4.3,13.4-4.6,18.1-0.9
				c0.7,0.5,1.4,1.2,2,1.9"/>
		</g>
	</g>
</g>
<g id="Layer_1_1_">
	<g>
		<path class="st2" d="M220,277c0,35.9-12.7,66.5-38.1,91.9c-25.4,25.4-56,38-91.9,38c-35.9,0-66.6-12.7-91.9-38.1
			C-27.3,343.5-40,312.9-40,277c0-35.9,12.7-66.6,38-91.9S54.1,147,90,147c35.9,0,66.5,12.7,91.9,38.1
			C207.3,210.4,220,241.1,220,277z"/>
	</g>
</g>
<g id="Layer_3">
	<g>
		<path class="st4" d="M130.8,236.1c-0.6-0.3-1.3-0.2-1.9,0.2c-0.5,0.4-0.9,0.9-1.1,1.5l-1.1,2.8c-0.2,0.4,0,0.7,0.4,0.9l1,0.4
			l-0.4,1.1l-5.1-2.1l0.4-1l0.9,0.3c0.4,0.2,0.8,0,0.9-0.4l1.6-4.1c0.1-0.5,0-0.8-0.4-0.9l-0.9-0.4l0.4-1.1l3.4,1.4l-0.4,1.3
			c0.6-0.4,1-0.6,1.4-0.7c0.4-0.1,0.8-0.1,1.3,0.1c0.5,0.2,0.9,0.5,1.1,1c0.3,0.5,0.3,1,0.1,1.5c-0.2,0.4-0.4,0.7-0.7,0.9
			c-0.3,0.2-0.7,0.2-1.1,0.1c-0.3-0.1-0.5-0.3-0.7-0.6c-0.1-0.3-0.1-0.6-0.1-0.9c0.1-0.3,0.3-0.5,0.6-0.6c0.3-0.1,0.6-0.1,0.9,0
			C131.3,236.4,131.1,236.3,130.8,236.1z M167.6,256.3h2.9c0.5,0,0.9,0.1,1.1,0.3c0.4,0.3,0.6,0.6,0.6,1.1c0,0.4-0.1,0.7-0.4,0.9
			c-0.2,0.3-0.5,0.4-0.9,0.5l0.8,1.2c0.5,0.6,0.9,1,1.1,1.2v0.2h-1.2c-0.2,0-0.4-0.3-0.7-0.8c-0.5-1-0.8-1.5-0.9-1.6h-0.6v1.5
			c0,0.3,0,0.5,0.1,0.5c0.1,0.1,0.3,0.1,0.6,0.1v0.3h-2.6v-0.3c0.4,0,0.6,0,0.6-0.1c0-0.1,0.1-0.2,0.1-0.5v-3.6c0-0.3,0-0.4-0.1-0.5
			c-0.1-0.1-0.3-0.1-0.6-0.1V256.3z M170,256.5h-0.6v2.4h0.6c0.6,0,0.9-0.4,0.9-1.3C170.9,256.9,170.6,256.5,170,256.5z M170.1,254
			c1.4,0,2.6,0.5,3.6,1.4c1,1,1.4,2.2,1.4,3.6c0,1.4-0.5,2.6-1.4,3.5c-0.9,1-2.1,1.5-3.6,1.5c-1.4,0-2.6-0.5-3.6-1.5
			c-1-0.9-1.4-2.1-1.4-3.5c0-1.4,0.5-2.6,1.4-3.6C167.4,254.5,168.7,254,170.1,254z M167.2,256c-0.8,0.8-1.1,1.8-1.1,3
			c0,1.2,0.4,2.2,1.1,3c0.8,0.9,1.8,1.3,2.9,1.3c1.1,0,2-0.4,2.8-1.3c0.8-0.8,1.2-1.8,1.2-3c0-1.2-0.4-2.1-1.2-3
			c-0.8-0.9-1.7-1.3-2.8-1.3C169,254.7,168,255.1,167.2,256z M58.9,230.9c1-0.3,1.9-0.3,2.7,0c0.8,0.3,1.3,0.8,1.5,1.5
			c0.1,0.4,0.1,0.7-0.1,1c-0.1,0.4-0.4,0.6-0.8,0.7c-0.3,0.1-0.7,0.1-0.9,0c-0.3-0.1-0.6-0.3-0.7-0.7c-0.2-0.7,0.1-1.1,0.7-1.4
			c-0.4-0.3-1-0.4-1.8-0.2c-0.8,0.2-1.3,0.7-1.5,1.5c-0.2,0.6-0.1,1.3,0.1,2c0.2,0.8,0.5,1.4,0.9,1.9c0.6,0.6,1.3,0.7,2.1,0.5
			c0.5-0.1,0.9-0.4,1.1-0.9c0.2-0.5,0.3-1.1,0.2-1.7l1.3-0.3c0.5,2.4-0.4,3.9-2.7,4.5c-1.3,0.4-2.4,0.3-3.3-0.3
			c-0.9-0.5-1.5-1.5-1.9-2.8c-0.3-1.2-0.2-2.4,0.4-3.4C56.9,231.8,57.8,231.1,58.9,230.9z M44.9,232.1c0.3-0.1,0.7-0.1,1,0
			c0.3,0.1,0.5,0.3,0.7,0.7c0.2,0.3,0.2,0.6,0,0.9c-0.1,0.3-0.3,0.5-0.7,0.7c-0.3,0.1-0.7,0.1-1,0c-0.3-0.2-0.5-0.4-0.7-0.7
			c-0.2-0.3-0.2-0.6,0-0.9C44.4,232.5,44.7,232.2,44.9,232.1z M44.2,236.4l3.3-1.4l2.4,5.9c0.2,0.4,0.5,0.5,0.9,0.3l0.8-0.3l0.4,1.1
			l-4.8,2l-0.4-1.1l0.8-0.3c0.4-0.2,0.6-0.5,0.4-0.9l-1.7-4.1c-0.1-0.4-0.4-0.6-0.9-0.4l-0.8,0.3L44.2,236.4z M76.4,228.9
			c0.7,0.8,1.1,1.8,1.2,2.9l-5.6,0.8c0.1,0.8,0.3,1.4,0.7,1.9c0.4,0.6,1,0.8,1.7,0.6c1.2-0.1,1.8-0.8,1.8-2.1l1.4-0.3
			c0.1,2.1-1,3.4-3.3,3.7c-1.3,0.2-2.4,0-3.2-0.6c-0.8-0.6-1.3-1.7-1.5-3.1c-0.2-1.3,0-2.4,0.7-3.3c0.6-0.9,1.6-1.5,2.8-1.6
			C74.4,227.6,75.5,228,76.4,228.9z M71.8,231.5l3.3-0.5c-0.2-1.4-0.8-2.1-1.8-1.9C72.2,229.2,71.8,230,71.8,231.5z M95,224.9
			l-0.7-0.1l0.1-1.1l3.4,0.4l-0.4,4.4h0.1c0.7-0.8,1.6-1.2,2.4-1.1c1.2,0.1,2.1,0.7,2.6,1.6c0.5,0.8,0.7,1.8,0.6,2.9
			c-0.1,1.5-0.5,2.6-1.2,3.3c-0.7,0.7-1.6,1-2.9,0.9c-0.6,0-1-0.2-1.4-0.4c-0.4-0.2-0.8-0.6-1.1-1.1l-0.8,0.8l-1.1-0.1l0.9-9.8
			C95.6,225.1,95.4,224.9,95,224.9z M100.6,229.5c-0.2-0.5-0.7-0.8-1.4-0.9c-1.2-0.1-1.9,0.8-2.1,2.8c-0.1,1.1-0.1,1.9,0.1,2.3
			c0.2,0.5,0.7,0.7,1.4,0.8c1.2,0.1,1.9-0.8,2.1-2.8C100.8,230.7,100.8,229.9,100.6,229.5z M116.5,231.1c0.4,0.6,0.6,1.2,0.4,1.9
			l-1,4.2c-0.1,0.4,0,0.6,0.3,0.7c0.3,0.1,0.6-0.3,0.8-1.2l0.1-0.6l1.1,0.3l-0.2,0.5c-0.4,1.8-1.4,2.6-2.9,2.2
			c-1-0.2-1.5-0.8-1.4-1.7c-0.7,0.7-1.8,0.9-3.1,0.6c-0.7-0.2-1.2-0.5-1.6-0.9c-0.4-0.5-0.5-1.1-0.3-1.9c0.3-1.2,1.4-1.8,3.1-1.8
			c1.8,0,2.8-0.4,2.9-1.1c0.2-0.9-0.3-1.5-1.5-1.8c-0.3-0.1-0.6-0.1-0.9-0.1c-0.4,0-0.6,0.1-0.9,0.3c0.8,0.1,1.1,0.5,0.9,1.2
			c-0.2,0.7-0.6,0.9-1.4,0.8c-0.4-0.1-0.6-0.3-0.8-0.6c-0.2-0.3-0.3-0.6-0.1-1c0.2-0.8,0.8-1.2,1.6-1.4c0.7-0.1,1.4-0.1,2.3,0.1
			C115.3,230,116,230.4,116.5,231.1z M111.1,235.5c-0.2,0.7,0.1,1.1,0.8,1.4c0.5,0.1,1,0,1.4-0.4c0.4-0.3,0.7-0.8,0.9-1.3l0.3-1.1
			l-2.1,0.3c-0.3,0.1-0.6,0.2-0.8,0.3C111.4,234.9,111.2,235.1,111.1,235.5z"/>
		<path class="st0" d="M-40,495v-1.5H63v1.5H-40z M-40,463.5V462H63v1.5H-40z M118,462h102v1.5H118V462z M118,493.5h102v1.5H118
			V493.5z"/>
		<polygon points="524,384 523.8,384.4 517.1,393 516.1,393 522.8,384.4 523,384 516.1,375 517.1,375 		"/>
	</g>
	<g>
		<polygon class="st2" points="233,554 220,537 410,537 397,554 410,571 220,571 		"/>
	</g>
	<g>
		<polygon points="233,604 220,587 410,587 397.1,603.9 397,604 410,621 220,621 232.7,604.3 		"/>
	</g>
	<g>
		<path class="st4" d="M423.6,183.8c1,1,1.4,2.1,1.4,3.6c0,1.4-0.5,2.6-1.4,3.5c-0.9,1-2.1,1.5-3.6,1.5c-1.4,0-2.6-0.5-3.6-1.5
			c-1-0.9-1.5-2.1-1.5-3.5c0-1.4,0.5-2.6,1.5-3.6c1-1,2.2-1.4,3.6-1.4C421.5,182.4,422.7,182.8,423.6,183.8z M422.1,185.9
			c0,0.4-0.1,0.7-0.4,0.9c-0.2,0.3-0.5,0.4-0.9,0.5l0.8,1.2c0.5,0.6,0.9,1,1,1.2v0.2h-1.2c-0.2,0-0.4-0.3-0.7-0.8
			c-0.5-1-0.8-1.5-0.9-1.6h-0.5v1.4c0,0.3,0,0.5,0,0.5c0.1,0.1,0.3,0.1,0.6,0.1v0.3h-2.5v-0.3c0.4,0,0.6,0,0.6-0.1
			c0-0.1,0-0.2,0-0.5v-3.6c0-0.3,0-0.4,0-0.5c-0.1-0.1-0.3-0.1-0.6-0.1v-0.3h2.9c0.5,0,0.9,0.1,1.1,0.3
			C422,185.2,422.1,185.5,422.1,185.9z M422.9,184.4c-0.8-0.9-1.7-1.3-2.8-1.3c-1.1,0-2.1,0.4-2.9,1.3c-0.8,0.8-1.1,1.8-1.1,3
			c0,1.2,0.4,2.2,1.1,3c0.8,0.9,1.8,1.3,2.9,1.3c1.1,0,2-0.4,2.8-1.3c0.8-0.8,1.2-1.8,1.2-3C424.1,186.2,423.7,185.2,422.9,184.4z
			 M419.5,184.9v2.4h0.5c0.6,0,0.9-0.4,0.9-1.3c0-0.7-0.3-1.1-0.9-1.1C420,184.9,419.5,184.9,419.5,184.9z M368.1,164.6l-0.1,0.5
			c-0.4,1.8-1.4,2.6-2.9,2.2c-1-0.2-1.5-0.8-1.4-1.7c-0.7,0.7-1.8,0.9-3.1,0.6c-0.7-0.2-1.2-0.5-1.6-0.9c-0.4-0.5-0.5-1.1-0.3-1.9
			c0.3-1.2,1.4-1.8,3.1-1.8c1.8,0,2.8-0.3,3-1.1c0.2-0.9-0.3-1.5-1.5-1.8c-0.3-0.1-0.6-0.1-0.9-0.1c-0.4,0-0.6,0.1-0.9,0.3
			c0.8,0.1,1.1,0.5,0.9,1.1c-0.2,0.7-0.6,0.9-1.4,0.8c-0.4-0.1-0.6-0.3-0.8-0.6c-0.2-0.3-0.3-0.6-0.1-1c0.2-0.8,0.8-1.2,1.6-1.4
			c0.7-0.1,1.4-0.1,2.3,0.2c1.1,0.3,1.9,0.7,2.4,1.3c0.4,0.6,0.5,1.2,0.4,2l-1,4.2c-0.1,0.4,0,0.6,0.3,0.6c0.3,0.1,0.5-0.3,0.8-1.2
			l0.1-0.6L368.1,164.6z M373.8,168.6c0.4,0.2,0.8,0,1-0.4l1.6-4.1c0.1-0.5,0-0.8-0.4-0.9l-0.9-0.4l0.4-1.1l3.5,1.4l-0.5,1.3
			c0.6-0.4,1-0.6,1.4-0.7c0.4-0.1,0.8-0.1,1.3,0.1c0.5,0.2,0.9,0.5,1.1,1c0.3,0.5,0.3,1,0.1,1.5c-0.2,0.4-0.4,0.7-0.7,0.9
			c-0.3,0.2-0.7,0.2-1.1,0.1c-0.3-0.1-0.5-0.3-0.7-0.6c-0.1-0.3-0.1-0.6-0.1-0.9c0.1-0.3,0.3-0.5,0.6-0.6s0.6-0.1,0.9,0.1
			c-0.1-0.2-0.3-0.4-0.6-0.5c-0.6-0.3-1.3-0.2-1.9,0.2c-0.5,0.4-0.9,0.9-1.1,1.5l-1.1,2.8c-0.2,0.4,0,0.7,0.4,0.9l1,0.4l-0.4,1.1
			l-5.1-2.1l0.4-1.1L373.8,168.6z M352.5,157.3c0.5,0.8,0.7,1.8,0.5,2.9c-0.1,1.5-0.5,2.6-1.2,3.3c-0.7,0.7-1.6,1-2.9,0.9
			c-0.6,0-1-0.2-1.4-0.4c-0.4-0.2-0.8-0.6-1.1-1.1l-0.8,0.9l-1.1-0.1l0.9-9.8c0-0.5-0.2-0.7-0.6-0.8l-0.7-0.1l0.1-1.1l3.4,0.4
			l-0.4,4.4h0c0.7-0.8,1.5-1.2,2.5-1.1C351.1,155.8,352,156.4,352.5,157.3z M349.2,157c-1.2-0.1-1.9,0.8-2.1,2.8
			c-0.1,1.1,0,1.9,0.1,2.3c0.2,0.5,0.7,0.7,1.4,0.8c1.2,0.1,1.9-0.8,2.1-2.8c0.1-1.1,0-1.9-0.1-2.3
			C350.3,157.4,349.9,157.1,349.2,157z M361.1,163.9c-0.2,0.7,0.1,1.1,0.8,1.3c0.5,0.1,1,0,1.4-0.3c0.4-0.3,0.7-0.8,0.9-1.3l0.3-1.1
			l-2,0.4c-0.3,0.1-0.6,0.2-0.8,0.3C361.4,163.2,361.2,163.5,361.1,163.9z M327.6,160.2l-5.5,0.8c0.1,0.8,0.3,1.4,0.6,1.9
			c0.4,0.6,1,0.8,1.7,0.6c1.2-0.1,1.8-0.8,1.9-2.1l1.5-0.3c0.1,2.1-1,3.4-3.3,3.7c-1.3,0.2-2.4,0-3.2-0.7c-0.8-0.6-1.3-1.7-1.5-3.1
			c-0.2-1.3,0-2.4,0.6-3.3c0.6-0.9,1.6-1.5,2.8-1.7c1.3-0.2,2.4,0.2,3.3,1.1C327.1,158.1,327.5,159.1,327.6,160.2z M311.6,159.2
			c0.8,0.3,1.3,0.8,1.5,1.5c0.1,0.4,0.1,0.7-0.1,1.1c-0.1,0.4-0.4,0.6-0.8,0.7c-0.3,0.1-0.6,0.1-1,0c-0.3-0.1-0.5-0.3-0.6-0.6
			c-0.2-0.7,0.1-1.1,0.7-1.4c-0.4-0.3-1-0.4-1.8-0.2c-0.8,0.2-1.3,0.7-1.5,1.5c-0.2,0.6-0.1,1.3,0.1,2.1c0.2,0.8,0.5,1.4,0.9,1.9
			c0.6,0.6,1.3,0.7,2.1,0.5c0.5-0.1,0.9-0.4,1.1-0.9c0.2-0.5,0.3-1.1,0.1-1.7l1.3-0.4c0.5,2.4-0.4,3.9-2.6,4.5
			c-1.3,0.4-2.4,0.3-3.3-0.3c-0.9-0.5-1.5-1.5-1.9-2.8c-0.3-1.2-0.2-2.4,0.4-3.4c0.6-1,1.5-1.6,2.6-1.9
			C309.9,158.9,310.8,158.9,311.6,159.2z M321.9,159.9l3.3-0.5c-0.2-1.4-0.8-2.1-1.9-2C322.2,157.6,321.8,158.4,321.9,159.9z
			 M296,160.5c0.3,0.1,0.5,0.3,0.6,0.6c0.2,0.3,0.2,0.6,0,1c-0.1,0.3-0.4,0.5-0.6,0.7c-0.3,0.1-0.7,0.1-1,0
			c-0.3-0.2-0.5-0.4-0.6-0.7c-0.2-0.3-0.2-0.7,0-1c0.1-0.3,0.4-0.6,0.6-0.7C295.3,160.3,295.6,160.3,296,160.5z M297.5,163.3
			l2.5,5.9c0.2,0.4,0.5,0.6,1,0.4l0.8-0.3l0.4,1.1l-4.8,2l-0.4-1.1l0.8-0.3c0.4-0.2,0.6-0.5,0.4-0.9l-1.8-4.1
			c-0.1-0.4-0.4-0.6-0.9-0.4l-0.8,0.3l-0.5-1.1L297.5,163.3z"/>
	</g>
	<g>
		<path d="M89.4,441c-1.2,0.2-2.4,0.5-3.4,0.9c-1.1,0.4-2.1,1-3,1.7c-0.6,0.5-1.2,1.1-1.8,1.7c-0.5,0.5-1,1.2-1.5,2
			c-0.8,1.2-1.5,2.4-2,3.5c-0.6,1.3-1,2.6-1.2,3.9c-0.1,0.6-0.3,1-0.6,1.3c-0.3,0.3-0.8,0.4-1.4,0.4c-0.8,0-1.5,0.3-2.2,0.8
			c-0.4,0.4-0.7,0.8-0.7,1.3c0,0.5,0.1,1,0.5,1.4c0.1,0.1,0.1,0.2,0.3,0.3c0.1,0.1,0.2,0.2,0.2,0.3c0.4,0.5,0.4,1.1,0.1,1.6
			c-0.2,0.2-0.4,0.7-0.7,1.2c-0.1,0.3-0.2,0.6-0.2,0.8c0,0.3,0.1,0.5,0.3,0.8c0.3,0.4,0.6,0.8,1,1c1.4,1,2.8,1.1,4.2,0.2
			c0.1-0.1,0.3-0.2,0.5-0.3c0.3-0.1,0.6-0.1,0.9,0c0.3,0.1,0.4,0.4,0.5,0.7c0.1,0.3,0,0.8-0.1,1.2c-0.1,0.5-0.1,0.9,0,1.2
			c0.2,0.3,0.5,0.5,0.9,0.6c0.3,0.1,0.6,0.1,0.9,0.1c0.2,0,0.5,0,0.9,0c1.2,0,2.3-0.5,3.3-1.5l-0.7-0.4c0.1,0,0.1,0,0.2,0
			c0,0,0.1,0,0.2,0c1.2-0.1,2.2,0.2,3.1,1.1c0.3,0.3,0.6,0.5,1,0.6c0.7,0.3,1.4,0.4,2.2,0.3c0.7-0.1,1.4-0.3,2.1-0.7
			c0.1,0,0.2-0.1,0.4-0.2c0.1-0.1,0.2-0.2,0.4-0.3l-2.3-0.6c0.4,0,0.9,0,1.4,0c0.7,0,1.2,0,1.4,0c0.3,0,0.6,0,0.9,0.1
			c0.3,0.1,0.5,0.2,0.8,0.4c0.3,0.2,0.5,0.3,0.7,0.4c2.1,0.6,4.2,0.7,6.1,0.2c0.6-0.1,1-0.4,1.3-0.6c0.4-0.3,0.6-0.8,0.7-1.3
			c0-0.1,0-0.1,0.1-0.3c0.1-0.3,0.2-0.5,0.4-0.6c0.2-0.1,0.4-0.2,0.7-0.2c0.2,0,0.4,0,0.6,0c0.1,0,0.3,0,0.6,0
			c0.8-0.1,1.4-0.3,1.9-0.7c0.5-0.4,0.8-0.9,0.9-1.6c0.1-0.5,0.1-0.9,0-1.2c-0.1-0.4-0.3-0.8-0.7-1c-0.3-0.2-0.5-0.4-0.6-0.7
			c-0.1-0.2-0.1-0.5-0.1-0.9c0.2-1-0.1-2-0.8-2.8c-0.2-0.3-0.5-0.6-0.8-0.7c-0.3-0.2-0.7-0.2-1.1-0.1c-0.1,0-0.3,0-0.5-0.2
			c-0.8-0.5-1.9-1.3-3.5-2.3c-0.1-0.1-0.2-0.2-0.2-0.2l0.1-0.2c0.3,0.1,0.8,0.4,1.5,0.7c0.6,0.3,1.2,0.6,1.5,0.7c0-0.2,0-0.3,0-0.3
			c0-0.1,0-0.2,0-0.3c-0.1-1-0.4-2.1-0.8-3.1c-0.4-0.9-0.8-1.9-1.5-2.9c-1.1-1.8-2.5-3.4-4.4-4.8c-0.8-0.6-1.6-1.1-2.4-1.5
			c-0.9-0.4-1.7-0.7-2.6-0.9c-0.7-0.1-1.4-0.2-2.2-0.2C90.9,440.8,90.2,440.9,89.4,441z M94,439.2c1,0.2,2,0.6,3,1.1
			c5.5,2.9,8.9,7.4,10.1,13.4c0,0.1,0,0.1,0,0.2l0.1,0.6c1.2,0.3,2.2,0.9,2.9,2c0.7,1,1,2.2,0.9,3.4c0,0.1,0,0.2,0,0.2
			c0,0.1,0.1,0.2,0.1,0.2c0.7,0.5,1,1.3,1.1,2.3c0.1,0.9-0.1,1.8-0.5,2.6c-0.4,0.8-1,1.5-1.8,1.9c-0.7,0.4-1.5,0.6-2.5,0.6l-0.4,0
			l-0.1,0c0,0-0.1,0-0.1,0.1c-0.1,0.5-0.4,1-0.8,1.4c-0.3,0.2-0.7,0.5-1.4,0.9c-0.1,0.1-0.2,0.1-0.3,0.2c0,0.1-0.1,0.2-0.1,0.3
			c-0.3,1.3-0.7,2.5-1,3.4c-1.3,4.1-3.6,11-6.7,20.5c-1.2,3.6-1.8,5.5-1.8,5.7c-0.4,1.1-0.9,2.1-1.6,2.9c-0.4,0.5-1,0.7-1.8,0.8
			c-0.8,0-1.5-0.2-1.9-0.6c-0.8-0.9-1.4-1.9-1.8-2.9c-0.3-0.9-0.7-2.2-1.3-3.8c-0.6-1.8-1-3-1.3-3.8c-2.8-8.5-4.9-14.8-6.3-19.1
			c-0.2-0.6-0.6-1.7-1.1-3.2c-0.2-0.5-0.3-0.9-0.4-1.2c-0.1-0.4-0.1-0.8-0.1-1.2c-0.4,0.1-0.7,0.1-0.9,0.1c-0.4,0.1-0.7,0.1-0.9,0.1
			c-1.9,0-3.5-0.8-4.6-2.3c-0.5-0.7-0.8-1.4-0.7-2.2c0-0.8,0.3-1.5,0.9-2.2l0.2-0.2c-0.7-0.8-1.1-1.7-1.2-2.5
			c-0.1-0.8,0.1-1.5,0.5-2.2c0.4-0.6,1-1.2,1.7-1.6c0.8-0.4,1.6-0.6,2.5-0.6c0.2-0.6,0.3-1,0.3-1.3c0.1-0.5,0.3-1,0.4-1.3
			c1.2-3.6,3.1-6.7,5.8-9.3c1.4-1.3,3.2-2.3,5.4-2.9c1.6-0.4,2.9-0.7,4.1-0.7C91.9,438.9,92.9,439,94,439.2z M85.7,471.8l0.1-0.4
			c0.2-0.7,0.6-0.8,1.2-0.3c0.3,0.2,0.3,0.5,0.2,0.8c0,0.1-0.1,0.2-0.1,0.4c0,0.1-0.1,0.3-0.1,0.3c-0.1,0.2-0.2,0.4-0.1,0.5
			c0,0.1,0.1,0.3,0.3,0.5c0.2,0.2,0.5,0.5,0.8,0.9c0.2,0.2,0.4,0.5,0.8,1c0.6-1.6,1-2.5,1-2.6c0.1-0.3,0.2-0.4,0.2-0.5
			c0-0.2-0.1-0.3-0.3-0.5c0,0,0,0-0.1-0.1c0-0.1,0-0.1-0.1-0.1c-0.1-0.1-0.1-0.1-0.1-0.1c-0.1,0-0.1-0.1-0.1-0.1
			c-0.6-0.1-1.1-0.3-1.5-0.5c-0.5-0.3-0.9-0.6-1.2-1.1c-1,0.7-2,1.1-3.1,1.4c-1.1,0.3-2.2,0.3-3.4,0.1l2.7,8.2
			c0.1-0.3,0.2-0.6,0.3-0.7c0.1-0.3,0.2-0.5,0.2-0.6c0-0.1,0-0.2,0-0.3c0-0.1,0-0.2-0.1-0.2c-0.1-0.2-0.4-0.5-0.6-0.9
			c-0.3-0.4-0.5-0.7-0.6-0.9c-0.2-0.2-0.2-0.4-0.1-0.6c0.1-0.2,0.3-0.3,0.5-0.3c0.5,0,0.9,0.1,1.2,0.5l0.5,0.7
			c0.2-0.5,0.3-0.8,0.4-1c0.2-0.4,0.3-0.7,0.4-1c0.2-0.3,0.2-0.6,0.2-0.8c0-0.2-0.2-0.5-0.4-0.7c-0.2-0.2-0.3-0.4-0.2-0.6
			c0.1-0.2,0.3-0.3,0.6-0.4c0.1,0,0.2,0,0.4,0C85.4,471.8,85.5,471.8,85.7,471.8z M94.6,470.5l0.2,0.3l0.9-0.6l-0.4-0.3L94.6,470.5z
			 M91.8,472c0.2,0.3,0.6,0.7,1.1,1.3l0.2-0.1l0.5-2.1c-1.1,0.3-1.7,0.4-1.7,0.5c-0.1,0-0.2,0.1-0.2,0.2
			C91.7,471.8,91.7,471.9,91.8,472z M94.9,471.9c-0.1,0.2-0.1,0.4-0.2,0.6c0,0.2-0.1,0.4-0.2,0.8c-0.1,0.3-0.2,0.6-0.2,0.8
			c0,0.1,0,0.1,0,0.2c0,0.1,0,0.1,0.1,0.2c0.2,0.2,0.9,0.8,1.9,1.7c0.3-1.1,0.5-1.7,0.5-1.8c0.1-0.3,0.2-0.5,0.2-0.7
			c0.1-0.3,0.1-0.5,0.1-0.6c-0.1-0.2-0.2-0.3-0.4-0.5c-0.3-0.2-0.5-0.3-0.6-0.5l-0.9-0.8C95,471.5,95,471.7,94.9,471.9z M97.6,470.8
			l-1.2-0.3l0,0.1l1,0.9L97.6,470.8z M98.8,472.5c0,0.1,0.1,0.2,0.2,0.3c0.4,0.4,0.8,0.7,1.1,0.9c0.4,0.3,0.9,0.4,1.4,0.5l1-3h-3.8
			c0,0.1,0,0.4,0.1,0.7C98.7,472,98.8,472.3,98.8,472.5z M98.3,474.1l-0.4,1.3c0.2,0,0.5,0.1,0.8,0.1c0.3,0.1,0.6,0.1,0.8,0.2
			c0.1,0,0.2,0.1,0.3,0.2c0.1,0.1,0.1,0.2,0,0.3c0,0.1-0.1,0.2-0.1,0.3c-0.1,0.1-0.1,0.1-0.2,0.2c-0.4,0.1-0.7,0.1-0.9,0.1
			c-0.3,0-0.6-0.1-0.9-0.3c-0.1,0.2-0.1,0.3-0.1,0.3c-0.1,0.2-0.1,0.4-0.1,0.5c0,0.1,0.2,0.3,0.3,0.4c0.5,0.3,1,0.7,1.5,1
			c0.1,0,0.1,0.1,0.2,0.2c0.1,0.1,0.1,0.2,0.1,0.2c0,0.3-0.2,0.5-0.6,0.6c-0.3,0.1-0.6,0.1-0.9,0l-1.2-0.8c-0.1,0.4-0.3,1.1-0.5,1.9
			c-0.2,0.7-0.4,1.4-0.6,1.9c-0.1,0.2-0.1,0.4,0,0.5c0,0.1,0.1,0.3,0.3,0.4c0.5,0.4,0.9,0.7,1.3,1.1c0.2,0.2,0.3,0.4,0.2,0.5
			c0,0.2-0.2,0.3-0.4,0.4c-0.5,0.2-0.9,0.1-1.2-0.1c-0.1-0.1-0.3-0.3-0.8-0.6l-1.2,4.4c0,0,0,0.1,0,0.1c0,0.1,0,0.1,0,0.1
			c0.2,0.2,0.8,0.9,1.9,1.9l5.2-16.4c-0.2,0.1-0.3,0.1-0.4,0.2c-0.2,0.1-0.3,0.1-0.4,0.1c-0.2,0-0.4-0.1-0.6-0.2
			c-0.1,0-0.3-0.2-0.5-0.3c-0.1-0.1-0.3-0.2-0.5-0.3C98.6,474.3,98.4,474.2,98.3,474.1z M92.5,474.7c-0.3-0.3-0.8-0.7-1.4-1.4
			c-0.6,1.6-1.1,2.7-1.2,3.2c0,0,0,0.1,0,0.2c0,0.1,0,0.1,0.1,0.2c0.2,0.2,0.7,0.8,1.6,1.8c0.5-1.7,0.9-2.9,1.1-3.7c0,0,0-0.1,0-0.1
			C92.6,474.8,92.6,474.8,92.5,474.7z M93.8,475.9c-0.5,1.6-0.8,2.9-1.1,3.8c0,0,0,0.1,0,0.2c0,0.1,0,0.1,0.1,0.1
			c0.4,0.4,1,1.1,1.8,2.1c0.2-0.8,0.4-1.5,0.5-1.9c0.2-0.7,0.4-1.3,0.5-1.8c0.1-0.2,0.1-0.4,0.1-0.5c0-0.2-0.1-0.3-0.3-0.4
			c-0.2-0.2-0.5-0.4-0.8-0.7C94.2,476.4,94,476.1,93.8,475.9z M90.9,480.2c-0.2-0.2-0.8-0.9-1.7-2c-0.7,1.8-1.2,3-1.4,3.5
			c0,0,0,0.1,0,0.2c0,0.1,0,0.1,0.1,0.1c0.4,0.5,1,1.4,1.8,2.5c0.5-1.6,0.9-3,1.2-4c0,0,0-0.1,0-0.1
			C90.9,480.2,90.9,480.2,90.9,480.2z M86.2,474.7c-0.7,1.7-1.1,2.7-1.2,2.9c0,0,0,0.1,0,0.1c0,0.1,0,0.1,0,0.1
			c0.4,0.6,1,1.5,1.8,2.5l1.3-3.3c0,0,0-0.1,0-0.1c0,0,0-0.1,0-0.1C87.9,476.7,87.2,475.9,86.2,474.7z M82.7,479.9l1.9,5.8
			c0.6-1.6,1.1-2.8,1.4-3.5c0-0.1,0-0.1,0-0.2c0-0.1,0-0.1,0-0.2c-0.3-0.5-0.9-1.3-1.7-2.5c0,0.1-0.1,0.2-0.1,0.4
			c-0.1,0.2-0.1,0.3-0.1,0.4c-0.1,0.2-0.2,0.3-0.3,0.3c-0.1,0-0.2,0-0.4-0.1c-0.1-0.1-0.2-0.1-0.3-0.3c-0.1-0.1-0.2-0.2-0.2-0.3
			L82.7,479.9z M86.1,486.2c-0.1,0.3-0.3,0.5-0.4,0.6c-0.2,0-0.4,0-0.8-0.3l0.8,2.3c0.1-0.1,0.2-0.2,0.2-0.2
			c0.3-0.2,0.5-0.4,0.8-0.3c0.3,0,0.5,0.2,0.7,0.5c0.1,0.1,0.2,0.3,0.4,0.5c0.1,0.1,0.2,0.3,0.4,0.5c0.2-0.7,0.4-1.2,0.5-1.6
			c0.2-0.6,0.3-1.1,0.5-1.5c0-0.1,0.1-0.3,0-0.4c0-0.1-0.1-0.2-0.2-0.3c-0.1-0.2-0.3-0.4-0.5-0.6c-0.2-0.3-0.4-0.5-0.5-0.6l-0.9-1.2
			C86.5,485.2,86.2,486.1,86.1,486.2z M85.9,489.4l2,6c0-0.3,0.1-0.6,0.2-0.7c0.1-0.1,0.3-0.1,0.6-0.2c0.1,0,0.2,0,0.3-0.1
			c0.1-0.1,0.3-0.1,0.4-0.1c0.1,0,0.2,0.1,0.3,0.2c0.2,0.2,0.3,0.5,0.4,0.7c0.1,0.2,0,0.5-0.4,0.9c-0.3,0.4-0.6,0.5-0.9,0.5
			c-0.1,0-0.3-0.1-0.4-0.3c-0.1-0.1-0.1-0.2-0.2-0.3c-0.1-0.1-0.1-0.3-0.2-0.3c0,0.1,0,0.2,0,0.2c0.2,0.5,0.4,1.2,0.7,2.2
			c0.3,0.9,0.5,1.6,0.8,2.1c0.2,0.5,0.6,1.1,1.1,1.7c0.2,0.3,0.5,0.4,0.7,0.4c0.3,0,0.5-0.1,0.7-0.4c0.2-0.2,0.3-0.3,0.4-0.4
			c0.1-0.2,0.2-0.3,0.3-0.4c0.2-0.4,0.4-1,0.6-1.6c0.3-0.7,0.5-1.3,0.6-1.7c-0.4,0.1-0.8,0-1.2-0.3c-0.3-0.4-0.6-0.7-0.8-0.8
			c-0.1,0.3-0.2,0.9-0.4,1.5c-0.2,0.6-0.3,1.1-0.4,1.5c0,0.1-0.1,0.2-0.2,0.3c-0.1,0.1-0.2,0.2-0.3,0.2c-0.1,0-0.3,0-0.4-0.1
			c-0.1-0.1-0.2-0.2-0.3-0.4c-0.2-0.5-0.3-1-0.1-1.5c0.2-0.8,0.5-1.8,0.7-2.8c0.1-0.2,0.1-0.4,0-0.5c-0.3-0.4-0.9-1.1-1.8-2.4
			c-0.1,0.4-0.2,0.7-0.2,0.8c-0.1,0.2-0.2,0.4-0.4,0.5c-0.2,0.1-0.4,0-0.6-0.2c-0.4-0.4-0.5-0.8-0.4-1.3c0.1-0.2,0.1-0.4,0.1-0.5
			c0-0.2,0.1-0.4,0.1-0.5c0-0.1,0-0.2,0-0.2c0-0.1,0-0.2-0.1-0.2C87.3,490.9,86.8,490.3,85.9,489.4L85.9,489.4z M92.7,485.6
			c-0.3,0.1-0.5,0.2-0.6,0.2c-0.2,0-0.4,0-0.6-0.2c-0.1-0.1-0.1-0.2-0.2-0.3c-0.2-0.2-0.2-0.4-0.2-0.4c0,0.1-0.1,0.2-0.1,0.4
			c0,0.1-0.1,0.3-0.1,0.3c0,0.2,0,0.4,0,0.4c0.3,0.3,0.9,1.1,1.9,2.2c0.6-2.3,1.1-3.7,1.2-4.3c0,0,0-0.1,0-0.1c0-0.1,0-0.1-0.1-0.1
			c-0.3-0.3-0.9-1-1.9-2.1l-0.8,2.6c0.1,0,0.2-0.1,0.4-0.2c0.1-0.1,0.3-0.1,0.4-0.1c0.2-0.1,0.5,0,0.9,0.3c0.3,0.3,0.5,0.5,0.5,0.8
			c0,0.2-0.1,0.3-0.3,0.5C93.1,485.4,93,485.5,92.7,485.6z M90.3,487.6c-0.5,1.6-0.8,2.7-1,3.3c0,0.1,0,0.1,0,0.2
			c0,0.1,0.1,0.1,0.1,0.2c0.2,0.2,0.6,0.7,1.2,1.5l0.6,0.8c0.5-1.6,0.8-2.7,1-3.4c0,0,0-0.1,0-0.2c0-0.1,0-0.1-0.1-0.1
			C92,489.6,91.4,488.8,90.3,487.6z M92.5,494.8c0,0,0,0.1,0,0.1c0,0.1,0,0.1,0,0.1c0.1,0.1,0.6,0.7,1.7,1.9l1.4-4.2
			c-0.4-0.1-0.7-0.3-1.1-0.6c-0.2-0.2-0.3-0.3-0.4-0.4c-0.2-0.2-0.3-0.3-0.5-0.4c0,0-0.1,0.1-0.1,0.1C93,493,92.7,494.1,92.5,494.8z
			"/>
		<path d="M86,462.2c-0.1,0.1-0.3,0.2-0.5,0.2c-0.2,0-0.4,0-0.6-0.2c-0.3-0.2-0.5-0.4-0.7-0.6c-0.6-0.6-1.5-0.8-2.5-0.6
			c-0.6,0.1-1,0.1-1.1,0c-0.2-0.1-0.3-0.5-0.3-1.1c0-0.4,0-0.7-0.1-1c0-0.2-0.1-0.3-0.2-0.4c-0.1-0.1-0.3-0.1-0.4-0.1
			c-0.3,0-0.5,0-0.7,0c-0.2,0-0.4-0.1-0.5-0.2c-0.1-0.1-0.1-0.3-0.1-0.5c0-0.3,0.2-0.6,0.4-0.8c0.2-0.2,0.5-0.3,0.8-0.3
			c0.6,0,1.1,0.1,1.6,0.5c0.4,0.4,0.7,0.9,0.8,1.6l0.1,0.4c0.4,0,0.6,0,0.6,0c0.7,0,1.3,0.1,1.9,0.4c0.5,0.3,1,0.7,1.5,1.3
			c0.2,0.2,0.2,0.4,0.2,0.6C86.2,461.8,86.1,462,86,462.2z"/>
		<path d="M92.3,462.2c-0.3,0.1-0.5,0.1-0.7,0c-0.2-0.1-0.3-0.3-0.3-0.6c0-0.3,0-0.5,0.1-0.7c0.1-0.2,0.2-0.4,0.4-0.5
			c1.4-1,3-1.4,4.5-1.3c0.3,0,0.5,0.1,0.6,0.3c0.2,0.2,0.2,0.4,0.2,0.6c0,0.2-0.1,0.4-0.4,0.6c-0.2,0.2-0.5,0.3-0.8,0.4
			c-0.1,0-0.2,0-0.4,0c-0.2,0-0.3,0-0.4,0c-0.4-0.1-0.7,0-1.1,0.1c-0.3,0.1-0.6,0.3-0.9,0.5C93,461.8,92.7,462,92.3,462.2z"/>
		<path d="M101,456.8c0.7-0.4,1.5-0.6,2.5-0.7c0.2,0,0.4,0,0.5,0c0.2,0,0.3,0.1,0.4,0.3c0.1,0.2,0.1,0.3,0.1,0.5
			c0,0.2-0.1,0.3-0.2,0.4c-0.1,0.1-0.3,0.2-0.4,0.3c-0.2,0.1-0.3,0.2-0.5,0.2c-0.5,0-0.9,0.1-1.3,0.4c-0.3,0.2-0.7,0.5-1,0.9
			c-0.1,0.1-0.2,0.2-0.3,0.3c-0.2,0.1-0.3,0.2-0.4,0.2c-0.4,0-0.7-0.2-0.8-0.5c-0.1-0.3-0.1-0.6,0.1-0.9
			C99.8,457.7,100.3,457.2,101,456.8z"/>
		<path d="M94.7,453.6c0,0,0.1,0,0.1,0c0.1,0,0.1,0,0.1,0.1c0.4,0.3,0.5,0.7,0.5,1.1c0,0.1,0,0.2-0.1,0.3c-0.2,0.2-0.4,0.3-0.5,0.4
			c-0.2,0.1-0.3,0.3-0.5,0.3c-0.1,0-0.1,0-0.2,0c-0.1,0-0.2-0.1-0.2-0.1c-0.4-0.4-0.7-0.9-0.7-1.4c0-0.1,0-0.1,0.1-0.2
			c0-0.1,0.1-0.1,0.2-0.2c0.1-0.1,0.3-0.1,0.5-0.2C94.2,453.8,94.4,453.7,94.7,453.6z"/>
		<path d="M84.7,447.7c0.1,0.1,0.2,0.3,0.3,0.7c0.1,0.4,0.1,0.6,0,0.8c0,0.1-0.1,0.1-0.2,0.2c-0.1,0.1-0.1,0.1-0.2,0.1
			c-0.3,0-0.6,0-0.7,0c-0.3,0-0.5,0-0.7-0.1c-0.2-0.1-0.3-0.2-0.4-0.4c0-0.2,0-0.4,0.1-0.6c0.1-0.1,0.1-0.1,0.1-0.2
			c0.1-0.3,0.1-0.5,0.2-0.6c0.1-0.1,0.3-0.1,0.6-0.2c0.1,0,0.2,0.1,0.4,0.1C84.5,447.5,84.6,447.6,84.7,447.7z"/>
		<path d="M80.4,464.7c-0.2,0-0.4-0.1-0.6-0.4c-0.2-0.3-0.4-0.5-0.4-0.7c0-0.2,0.1-0.4,0.4-0.5c0.3-0.2,0.6-0.2,0.9-0.2
			c0.2,0,0.4,0.1,0.7,0.4c0.3,0.3,0.4,0.5,0.4,0.6c0,0.2-0.2,0.4-0.5,0.5C81.1,464.6,80.8,464.6,80.4,464.7z"/>
		<path d="M97.3,447.4c-0.2,0-0.4,0-0.4,0c-0.1,0-0.2,0-0.3,0c-0.1,0-0.3,0-0.4-0.1c-0.2-0.1-0.3-0.2-0.3-0.3c0-0.1-0.1-0.3,0-0.4
			c0-0.1,0.1-0.2,0.2-0.3c0.1-0.1,0.2-0.1,0.4-0.1c0.5,0,0.9,0.1,1.2,0.2c0.1,0,0.2,0.1,0.3,0.2c0.1,0.1,0.1,0.2,0.1,0.4
			c0,0.1-0.1,0.3-0.2,0.3c-0.1,0.1-0.2,0.1-0.3,0.1C97.5,447.4,97.4,447.4,97.3,447.4z"/>
		<path d="M103.5,461.8c0.2,0,0.3,0.1,0.4,0.2c0.1,0.1,0.1,0.2,0.2,0.4c0,0.1,0,0.3,0,0.4c0,0.1-0.1,0.1-0.3,0.2
			c-0.1,0-0.3,0.1-0.5,0.2c-0.2,0.1-0.3,0.1-0.5,0c-0.1,0-0.2-0.2-0.3-0.4c-0.1-0.3-0.1-0.5,0.3-0.7c0.1,0,0.2-0.1,0.4-0.1
			C103.2,461.9,103.3,461.9,103.5,461.8z"/>
		<path d="M82.3,473.6c-0.1-0.1-0.2-0.2-0.2-0.3c-0.1-0.1-0.1-0.2-0.1-0.3c0-0.1,0-0.2,0-0.3c0-0.1,0.1-0.2,0.1-0.3
			c0.2-0.1,0.5-0.2,0.9-0.3c0.1,0,0.2,0,0.3,0.1c0.1,0.1,0.1,0.2,0.2,0.3c0.1,0.2,0,0.4-0.2,0.5c-0.1,0.1-0.3,0.1-0.4,0.2
			C82.7,473.5,82.5,473.6,82.3,473.6z"/>
	</g>
	<g>
		<path class="st2" d="M366.4,442c-0.9-0.4-1.7-0.7-2.6-0.9c-0.7-0.2-1.4-0.3-2.1-0.3c-0.7,0-1.4,0.1-2.1,0.2
			c-1.2,0.2-2.4,0.5-3.4,0.9c-1.1,0.4-2.1,1-3,1.7c-0.6,0.5-1.2,1.1-1.8,1.7c-0.5,0.6-1,1.2-1.5,2c-0.8,1.2-1.5,2.4-2,3.5
			c-0.6,1.3-1,2.6-1.1,3.9c-0.1,0.6-0.3,1-0.6,1.3s-0.8,0.4-1.4,0.4c-0.8,0-1.5,0.3-2.2,0.8c-0.4,0.4-0.7,0.8-0.7,1.4
			c0,0.5,0.1,1,0.5,1.4c0.1,0.1,0.2,0.2,0.3,0.3c0.1,0.1,0.2,0.2,0.2,0.3c0.4,0.5,0.4,1.1,0,1.6c-0.1,0.3-0.4,0.7-0.6,1.3
			c-0.1,0.3-0.2,0.5-0.2,0.8s0.1,0.5,0.3,0.8c0.3,0.4,0.6,0.8,1,1c1.4,1,2.8,1,4.2,0.1c0.1-0.1,0.3-0.1,0.5-0.3
			c0.3-0.1,0.6-0.1,0.9,0c0.3,0.1,0.4,0.4,0.5,0.7c0.1,0.3,0,0.8-0.1,1.3c-0.1,0.5-0.1,0.9,0,1.2c0.1,0.3,0.5,0.5,1,0.6
			c0.3,0.1,0.6,0.1,0.9,0.1c0.2,0,0.5,0,1,0c1.2,0,2.3-0.5,3.3-1.5l-0.6-0.4c0.1,0,0.1,0,0.3-0.1c0,0,0.1,0,0.2,0
			c1.2-0.1,2.2,0.3,3,1.1c0.3,0.3,0.6,0.5,1,0.6c0.7,0.3,1.4,0.4,2.2,0.3c0.7-0.1,1.4-0.3,2.1-0.7c0.1-0.1,0.2-0.1,0.4-0.3
			c0.1-0.1,0.2-0.2,0.4-0.3l-2.4-0.6c0.4,0,0.9,0,1.5,0c0.7,0,1.2,0,1.5,0c0.3,0,0.6,0,0.9,0.1c0.3,0.1,0.5,0.3,0.8,0.4
			c0.3,0.2,0.6,0.3,0.8,0.4c2.1,0.6,4.2,0.6,6.1,0.1c0.6-0.1,1-0.4,1.4-0.6c0.4-0.3,0.6-0.7,0.6-1.3c0-0.1,0-0.2,0.1-0.3
			c0.1-0.3,0.2-0.5,0.4-0.6c0.2-0.2,0.4-0.3,0.6-0.3c0.2,0,0.4,0,0.6,0c0.1,0,0.3,0,0.5,0c0.8-0.1,1.4-0.3,1.9-0.7
			c0.5-0.4,0.8-0.9,1-1.6c0.1-0.5,0.1-0.9,0-1.3c-0.1-0.4-0.3-0.7-0.6-1c-0.3-0.2-0.5-0.4-0.5-0.7c-0.1-0.2-0.1-0.5,0-0.9
			c0.1-1-0.1-2-0.8-2.9c-0.3-0.3-0.5-0.5-0.8-0.7c-0.3-0.2-0.6-0.2-1-0.1c-0.1,0-0.3,0-0.5-0.1c-0.8-0.5-1.9-1.3-3.5-2.3
			c-0.1-0.1-0.2-0.2-0.3-0.2l0.1-0.1c0.3,0.1,0.8,0.4,1.4,0.7c0.7,0.3,1.2,0.6,1.6,0.8c0-0.2,0-0.3,0-0.4c0-0.1,0-0.2,0-0.3
			c-0.1-1.1-0.4-2.1-0.9-3.1c-0.4-0.9-0.9-1.9-1.5-2.9c-1.1-1.8-2.5-3.4-4.4-4.8C367.9,442.9,367.1,442.4,366.4,442z M356.8,439.8
			c1.5-0.4,2.9-0.6,4-0.7c1.1-0.1,2.1,0,3.1,0.2c1,0.2,2,0.5,3,1c5.5,2.9,8.9,7.4,10,13.4c0,0.1,0,0.1,0,0.2l0.1,0.6
			c1.2,0.2,2.1,0.9,2.9,2c0.7,1,1,2.2,0.9,3.5c0,0.1,0,0.1,0,0.3c0,0.1,0.1,0.1,0.1,0.1c0.7,0.5,1,1.3,1.1,2.3
			c0.1,0.9-0.1,1.8-0.5,2.6c-0.4,0.8-1,1.5-1.8,1.9c-0.7,0.4-1.5,0.6-2.5,0.6H377l0,0c-0.1,0.6-0.4,1-0.9,1.5
			c-0.2,0.2-0.7,0.5-1.4,0.9c-0.1,0.1-0.2,0.1-0.3,0.3c-0.1,0.1-0.1,0.2-0.1,0.4c-0.3,1.3-0.6,2.5-1,3.4c-1.3,4.1-3.5,11-6.6,20.6
			c-1.2,3.6-1.8,5.5-1.9,5.7c-0.4,1.1-0.9,2.1-1.6,2.9c-0.4,0.5-1,0.7-1.8,0.8c-0.8,0-1.4-0.2-1.9-0.6c-0.8-0.9-1.4-1.9-1.8-2.9
			c-0.3-0.9-0.7-2.2-1.3-3.8c-0.6-1.8-1-3.1-1.3-3.8c-2.8-8.5-5-14.9-6.4-19.1c-0.2-0.6-0.6-1.7-1.1-3.2c-0.2-0.5-0.3-0.9-0.4-1.1
			c-0.1-0.4-0.1-0.8-0.1-1.2c-0.4,0.1-0.8,0.1-1,0.1c-0.3,0-0.6,0.1-0.9,0.1c-1.9,0-3.5-0.8-4.6-2.3c-0.5-0.7-0.8-1.5-0.7-2.3
			c0-0.8,0.3-1.6,0.9-2.2l0.2-0.2c-0.7-0.8-1.1-1.7-1.2-2.5c-0.1-0.8,0.1-1.5,0.5-2.2c0.4-0.7,1-1.2,1.8-1.5
			c0.8-0.4,1.6-0.6,2.5-0.6c0.2-0.6,0.3-1,0.4-1.3c0.2-0.6,0.3-1,0.4-1.4c1.2-3.6,3.1-6.7,5.9-9.3
			C352.8,441.3,354.5,440.4,356.8,439.8z M355,449.1c0,0.1-0.1,0.1-0.1,0.1c-0.1,0.1-0.1,0.1-0.2,0.1c-0.3,0-0.6,0-0.7,0
			c-0.2,0-0.5,0-0.6-0.1c-0.2,0-0.4-0.1-0.4-0.4c0-0.2,0-0.4,0.1-0.5c0-0.1,0.1-0.1,0.1-0.1c0-0.3,0.1-0.5,0.2-0.6
			c0.1-0.1,0.3-0.2,0.6-0.2c0.1,0,0.2,0.1,0.4,0.1c0.2,0,0.3,0.1,0.4,0.1c0.1,0.1,0.2,0.3,0.3,0.7C355.1,448.8,355.1,449,355,449.1z
			 M364.6,453.6c0,0,0.1,0,0.1,0c0.1,0,0.1,0.1,0.1,0.1c0.3,0.3,0.5,0.7,0.5,1.1c0,0.1,0,0.2-0.1,0.3c-0.2,0.2-0.4,0.3-0.4,0.4
			c-0.2,0.1-0.4,0.3-0.5,0.4c-0.1,0-0.1,0-0.3,0c-0.1,0-0.2-0.1-0.3-0.1c-0.4-0.4-0.6-0.9-0.6-1.5c0-0.1,0-0.1,0.1-0.2
			c0-0.1,0.1-0.1,0.1-0.1c0.1-0.1,0.3-0.1,0.5-0.2C364.2,453.8,364.4,453.7,364.6,453.6z M349.9,458.6c-0.1-0.1-0.2-0.1-0.4-0.1
			c-0.3,0-0.5,0-0.6,0c-0.2,0-0.4,0-0.4-0.1c-0.1-0.1-0.1-0.3-0.1-0.5c0-0.3,0.2-0.6,0.4-0.8c0.2-0.2,0.5-0.3,0.8-0.4
			c0.6,0,1.1,0.1,1.5,0.5c0.4,0.4,0.7,0.9,0.8,1.6l0.1,0.4c0.4,0,0.6,0,0.6,0c0.7,0,1.4,0.1,2,0.4c0.5,0.3,1,0.7,1.5,1.3
			c0.2,0.2,0.3,0.4,0.3,0.6s-0.1,0.4-0.2,0.6c-0.1,0.1-0.3,0.2-0.5,0.3c-0.2,0-0.4-0.1-0.6-0.1c-0.3-0.2-0.5-0.4-0.8-0.6
			c-0.6-0.6-1.5-0.8-2.5-0.6c-0.6,0.1-1,0.1-1.1,0c-0.2-0.2-0.3-0.5-0.3-1.1c0-0.4,0-0.7,0-1C350.1,458.8,350,458.7,349.9,458.6z
			 M349.5,463.6c0-0.2,0.1-0.4,0.5-0.5c0.3-0.2,0.6-0.3,0.9-0.3c0.2,0,0.4,0.1,0.6,0.4s0.4,0.5,0.4,0.6c0,0.2-0.1,0.4-0.5,0.6
			c-0.3,0.2-0.6,0.3-0.9,0.3c-0.2,0-0.4-0.1-0.6-0.4C349.6,464,349.5,463.8,349.5,463.6z M362.3,462.2c-0.3,0.1-0.5,0.1-0.7,0
			c-0.2-0.1-0.3-0.4-0.3-0.6c0-0.2,0-0.5,0-0.6c0.1-0.2,0.3-0.4,0.5-0.5c1.4-1,3-1.4,4.5-1.3c0.2,0,0.4,0.1,0.6,0.3
			c0.2,0.2,0.3,0.4,0.3,0.6c0,0.2-0.1,0.4-0.4,0.6c-0.2,0.2-0.5,0.3-0.8,0.4c-0.1,0-0.2,0-0.4,0c-0.2,0-0.3,0-0.4,0
			c-0.4-0.1-0.7,0-1,0.1c-0.3,0.1-0.6,0.3-0.9,0.5C363,461.8,362.7,462,362.3,462.2z M333,462v1.5H230V462H333z M364.8,470.8
			l0.9-0.5l-0.4-0.3l-0.7,0.5L364.8,470.8z M361.7,471.7c0,0.1,0,0.2,0.1,0.3c0.2,0.3,0.6,0.7,1.1,1.3l0.1-0.1l0.6-2.1
			c-1.1,0.3-1.7,0.5-1.8,0.5C361.8,471.5,361.7,471.6,361.7,471.7z M362.5,474.8c-0.3-0.3-0.8-0.8-1.5-1.4c-0.6,1.6-1,2.7-1.3,3.1
			c0,0.1,0,0.1,0,0.2c0,0.1,0.1,0.1,0.1,0.1c0.1,0.2,0.6,0.8,1.5,1.8c0.5-1.7,0.9-2.9,1.1-3.7C362.6,474.9,362.6,474.9,362.5,474.8
			C362.6,474.8,362.6,474.8,362.5,474.8z M364.8,472.5c-0.1,0.2-0.1,0.4-0.3,0.8c-0.1,0.3-0.2,0.6-0.3,0.8c0,0.1,0,0.1,0,0.2
			c0,0.1,0,0.1,0,0.1c0.2,0.2,0.9,0.8,1.9,1.8c0.3-1.1,0.5-1.7,0.5-1.8c0.1-0.3,0.2-0.5,0.3-0.7c0.1-0.3,0.1-0.5,0-0.6
			c-0.1-0.1-0.2-0.3-0.5-0.5c-0.3-0.2-0.5-0.4-0.6-0.4l-0.9-0.9c-0.1,0.2-0.1,0.4-0.1,0.6C364.9,472.2,364.8,472.4,364.8,472.5z
			 M357.6,470.9c-0.5-0.3-0.9-0.6-1.2-1.1c-1,0.7-2,1.1-3.1,1.4s-2.2,0.3-3.4,0.1l2.6,8.1c0.2-0.3,0.3-0.6,0.3-0.7
			c0.1-0.3,0.2-0.5,0.3-0.6c0-0.1,0-0.1,0-0.3c0-0.1-0.1-0.2-0.1-0.3c-0.1-0.2-0.4-0.5-0.6-0.9c-0.3-0.4-0.5-0.7-0.6-0.9
			c-0.2-0.2-0.2-0.4-0.1-0.6c0.1-0.2,0.2-0.3,0.5-0.3c0.5,0,0.9,0.1,1.2,0.5l0.5,0.7c0.2-0.5,0.3-0.8,0.4-1c0.1-0.4,0.3-0.7,0.4-1
			c0.1-0.3,0.2-0.6,0.2-0.8c0-0.3-0.2-0.5-0.5-0.7c-0.2-0.2-0.3-0.4-0.1-0.6c0.1-0.2,0.3-0.4,0.6-0.4c0.1,0,0.2,0,0.4,0
			c0.1,0,0.2,0,0.4,0l0.1-0.4c0.2-0.7,0.6-0.8,1.2-0.3c0.3,0.2,0.4,0.5,0.3,0.9c0,0.1-0.1,0.2-0.1,0.4c-0.1,0.1-0.1,0.2-0.1,0.3
			c-0.1,0.2-0.2,0.4-0.1,0.6c0,0.1,0.1,0.3,0.3,0.4c0.2,0.2,0.4,0.5,0.8,0.9c0.2,0.2,0.5,0.5,0.8,1c0.6-1.6,1-2.5,1-2.5
			c0.1-0.3,0.1-0.5,0.1-0.6c0-0.2-0.1-0.3-0.3-0.4c0,0,0,0,0-0.1l0-0.1l-0.1-0.1c-0.1,0-0.1-0.1-0.1-0.1
			C358.5,471.3,358,471.1,357.6,470.9z M355,477.9c0.4,0.7,1,1.5,1.8,2.6l1.3-3.3c0,0,0-0.1,0-0.1l0-0.1c-0.2-0.2-0.8-1-1.9-2.3
			c-0.7,1.7-1.1,2.7-1.2,2.9c0,0,0,0.1,0,0.1C355,477.8,355,477.8,355,477.9z M362.7,479.8c0,0,0,0.1,0,0.1c0,0,0,0.1,0,0.1
			c0.4,0.5,1,1.1,1.8,2c0.3-0.8,0.5-1.5,0.5-1.9c0.2-0.7,0.4-1.3,0.5-1.8c0.1-0.2,0.1-0.4,0.1-0.5c0-0.2-0.1-0.3-0.3-0.5
			c-0.2-0.2-0.4-0.5-0.8-0.8c-0.4-0.3-0.6-0.6-0.8-0.8C363.3,477.5,363,478.8,362.7,479.8z M361,480.3l0-0.1c-0.2-0.2-0.8-0.9-1.7-2
			c-0.7,1.8-1.2,3-1.4,3.5c0,0,0,0.1,0,0.1c0,0.1,0,0.1,0.1,0.1c0.4,0.5,1,1.4,1.8,2.5c0.5-1.6,0.9-2.9,1.3-4
			C361,480.4,361,480.4,361,480.3z M352.1,472.5c0.2-0.1,0.5-0.2,0.9-0.3c0.1,0,0.3,0,0.4,0.1c0.1,0.1,0.1,0.2,0.2,0.4
			c0.1,0.2,0,0.4-0.3,0.5c-0.1,0-0.2,0.1-0.4,0.2c-0.2,0.1-0.4,0.2-0.6,0.3c-0.1-0.1-0.2-0.2-0.2-0.3c-0.1-0.1-0.1-0.2-0.1-0.3
			c0-0.1,0-0.2,0-0.4C352,472.6,352.1,472.6,352.1,472.5z M353.1,480.1c-0.1-0.1-0.2-0.2-0.3-0.3l-0.1,0.1l1.9,5.8
			c0.6-1.6,1.1-2.8,1.4-3.5c0,0,0-0.1,0-0.1s0-0.1,0-0.1c-0.3-0.5-0.9-1.3-1.7-2.5c0,0.1-0.1,0.2-0.1,0.4c-0.1,0.1-0.1,0.3-0.1,0.4
			c-0.1,0.2-0.1,0.3-0.3,0.3s-0.2,0-0.4-0.1C353.3,480.3,353.2,480.2,353.1,480.1z M364,483.8c0,0,0-0.1,0-0.1
			c-0.3-0.3-0.9-1-1.9-2.1l-0.8,2.6c0.1,0,0.2-0.1,0.4-0.1s0.3-0.1,0.4-0.1c0.2-0.1,0.5,0,0.9,0.3c0.3,0.2,0.5,0.5,0.5,0.8
			c0,0.2-0.1,0.4-0.3,0.4c-0.1,0.1-0.2,0.1-0.5,0.2c-0.3,0.1-0.5,0.1-0.5,0.1c-0.2,0-0.4,0-0.5-0.2c-0.1-0.1-0.1-0.2-0.3-0.3
			l-0.3-0.4c0,0.1-0.1,0.2-0.1,0.4c-0.1,0.2-0.1,0.3-0.1,0.4c-0.1,0.2-0.1,0.4,0,0.5c0.2,0.3,0.9,1,1.9,2.3c0.7-2.3,1.1-3.8,1.3-4.4
			C364,483.9,364,483.8,364,483.8z M355.7,486.9c-0.2,0-0.5-0.1-0.8-0.3l0.8,2.3l0.1-0.3c0.3-0.2,0.5-0.3,0.8-0.3s0.5,0.2,0.8,0.5
			c0.1,0.1,0.2,0.3,0.4,0.5c0.1,0.1,0.2,0.3,0.4,0.5c0.2-0.7,0.4-1.3,0.5-1.6c0.2-0.6,0.3-1.1,0.4-1.5c0.1-0.1,0.1-0.3,0.1-0.4
			c0-0.1-0.1-0.2-0.1-0.3c-0.1-0.2-0.3-0.4-0.5-0.6c-0.2-0.3-0.4-0.5-0.5-0.6l-0.9-1.3c-0.6,1.8-1,2.7-1.1,2.9
			C356,486.6,355.9,486.8,355.7,486.9z M355.9,489.4l2,6.1c0-0.4,0.1-0.6,0.1-0.6c0.1-0.1,0.3-0.2,0.6-0.2c0.1,0,0.1,0,0.3-0.1
			c0.1-0.1,0.3-0.1,0.4-0.1c0.1,0,0.3,0.1,0.4,0.3c0.2,0.2,0.3,0.4,0.4,0.7c0.1,0.2,0,0.5-0.4,0.9c-0.3,0.4-0.6,0.5-0.9,0.4
			c-0.1,0-0.3-0.1-0.4-0.3c-0.1-0.1-0.1-0.1-0.2-0.3c-0.1-0.1-0.1-0.3-0.2-0.4c0,0.1,0,0.2,0,0.3c0.2,0.5,0.4,1.2,0.7,2.1
			c0.3,0.9,0.5,1.6,0.8,2.1c0.2,0.5,0.6,1.1,1.1,1.7c0.2,0.3,0.4,0.4,0.7,0.4s0.5-0.1,0.8-0.4c0.2-0.2,0.3-0.3,0.4-0.4
			c0.1-0.2,0.2-0.3,0.3-0.4c0.2-0.4,0.4-0.9,0.6-1.6c0.3-0.7,0.5-1.3,0.6-1.6c-0.5,0.1-0.9,0-1.2-0.3c-0.3-0.4-0.6-0.7-0.9-0.8
			c-0.1,0.3-0.2,0.9-0.4,1.5c-0.1,0.6-0.3,1.1-0.4,1.5c0,0.1-0.1,0.2-0.1,0.3c-0.1,0.1-0.1,0.2-0.3,0.2c-0.1,0-0.3,0-0.4,0
			c-0.1-0.1-0.2-0.2-0.3-0.4c-0.2-0.5-0.3-1-0.1-1.5c0.2-0.9,0.5-1.8,0.7-2.8c0.1-0.2,0.1-0.4,0-0.5c-0.2-0.3-0.8-1.1-1.8-2.4
			c-0.1,0.4-0.2,0.7-0.2,0.8c-0.1,0.2-0.2,0.4-0.4,0.4c-0.2,0-0.4,0-0.5-0.2c-0.4-0.4-0.5-0.8-0.4-1.3c0.1-0.2,0.1-0.4,0.1-0.5
			c0-0.2,0.1-0.4,0.1-0.5c0-0.1,0-0.1,0-0.3c0-0.1-0.1-0.1-0.1-0.2c-0.2-0.3-0.7-0.9-1.5-1.9L355.9,489.4z M359.5,491.4
			c0.2,0.2,0.5,0.7,1.1,1.5l0.6,0.8c0.4-1.6,0.8-2.7,1-3.4c0-0.1,0-0.1,0-0.2c0,0,0-0.1,0-0.1c-0.2-0.3-0.8-1-1.9-2.2
			c-0.5,1.6-0.8,2.7-0.9,3.3c0,0,0,0.1,0,0.2C359.4,491.2,359.4,491.3,359.5,491.4z M364,491.6c-0.2-0.2-0.3-0.3-0.5-0.4
			c-0.1,0-0.1,0.1-0.1,0.1c-0.5,1.6-0.8,2.8-1,3.5c0,0,0,0.1,0,0.1c0,0,0,0.1,0,0.1c0.1,0.1,0.7,0.7,1.7,1.9l1.4-4.2
			c-0.4-0.1-0.7-0.3-1.1-0.6C364.3,491.9,364.1,491.8,364,491.6z M364,489.5c0,0.1,0,0.1,0,0.1c0.2,0.2,0.8,0.9,1.9,2l5.3-16.4
			c-0.2,0.1-0.3,0.1-0.4,0.1c-0.2,0.1-0.3,0.1-0.4,0.1c-0.2-0.1-0.4-0.1-0.5-0.3c-0.1-0.1-0.3-0.2-0.5-0.4c-0.1-0.1-0.3-0.2-0.5-0.3
			c-0.2-0.1-0.4-0.3-0.5-0.4l-0.4,1.4c0.2,0,0.5,0.1,0.8,0.1c0.3,0,0.6,0.1,0.8,0.1c0.1,0,0.2,0.1,0.3,0.2c0.1,0.1,0.1,0.2,0,0.4
			c0,0.1-0.1,0.1-0.1,0.3c-0.1,0.1-0.1,0.1-0.2,0.1c-0.4,0.1-0.8,0.1-1,0c-0.3,0-0.6-0.1-0.9-0.3c-0.1,0.2-0.1,0.3-0.1,0.4
			c-0.1,0.2-0.1,0.3,0,0.5c0,0.1,0.1,0.3,0.3,0.4c0.5,0.3,1,0.7,1.5,1c0.1,0.1,0.1,0.1,0.1,0.2c0.1,0.1,0.1,0.2,0.1,0.2
			c-0.1,0.3-0.3,0.5-0.6,0.6c-0.3,0.1-0.6,0.1-0.9,0l-1.1-0.8c-0.1,0.4-0.3,1.1-0.5,1.9c-0.2,0.7-0.4,1.4-0.6,1.9
			c-0.1,0.2-0.1,0.4,0,0.5c0.1,0.1,0.2,0.3,0.3,0.4c0.5,0.4,0.9,0.8,1.3,1c0.2,0.2,0.3,0.4,0.3,0.5c0,0.2-0.2,0.3-0.4,0.4
			c-0.5,0.2-0.9,0.2-1.1-0.1c-0.1-0.1-0.3-0.3-0.8-0.6l-1.2,4.4C364,489.3,364,489.4,364,489.5z M333,493.5v1.5H230v-1.5H333z
			 M388,462h102v1.5H388V462z M368.1,446.9c0,0.1,0,0.2-0.1,0.3c-0.1,0.1-0.2,0.1-0.4,0.1c-0.1,0-0.2,0-0.3,0l-0.4,0.1
			c-0.1,0-0.2-0.1-0.3-0.1c-0.2,0-0.3-0.1-0.4-0.1c-0.2,0-0.3-0.1-0.4-0.3s-0.1-0.3,0-0.5c0-0.1,0.1-0.2,0.2-0.3
			c0.1-0.1,0.2-0.1,0.4-0.1c0.5,0,1,0.1,1.3,0.1c0.1,0,0.2,0.1,0.3,0.2S368.1,446.7,368.1,446.9z M374,456.1c0.2,0,0.3,0.1,0.4,0.3
			c0.1,0.1,0.1,0.3,0.1,0.5c0,0.1-0.1,0.3-0.3,0.4c-0.1,0.1-0.3,0.3-0.4,0.4c-0.2,0.1-0.3,0.1-0.5,0.1c-0.5,0-1,0.2-1.4,0.4
			c-0.3,0.2-0.7,0.5-1,0.9c-0.1,0.1-0.2,0.2-0.3,0.3c-0.2,0.1-0.3,0.1-0.4,0.2c-0.4,0-0.7-0.2-0.9-0.5c-0.1-0.3-0.1-0.6,0-1
			c0.3-0.5,0.8-1,1.5-1.4c0.7-0.4,1.5-0.6,2.5-0.7C373.7,456.1,373.9,456.1,374,456.1z M373.5,461.8c0.2,0,0.3,0,0.4,0.1
			c0.1,0.1,0.1,0.2,0.2,0.4c0,0.2,0,0.3,0,0.4c0,0.1-0.1,0.1-0.3,0.3c-0.1,0-0.2,0.1-0.5,0.2c-0.2,0.1-0.4,0.1-0.5,0.1
			c-0.1-0.1-0.2-0.2-0.3-0.4c-0.2-0.3-0.1-0.5,0.3-0.7c0.1,0,0.2-0.1,0.4-0.1C373.2,461.9,373.3,461.9,373.5,461.8z M372.5,471.1
			h-3.8c0,0.1,0.1,0.4,0.1,0.6c0,0.3,0,0.5,0,0.7c0,0.1,0.1,0.2,0.2,0.3c0.4,0.4,0.8,0.6,1.1,0.9c0.4,0.3,0.9,0.4,1.4,0.5
			L372.5,471.1z M366.4,470.5l1,0.9l0.2-0.6L366.4,470.5L366.4,470.5z M388,493.5h102v1.5H388V493.5z"/>
	</g>
</g>
<g id="Layer_1_2_">
	<g>
		<g>
			<path class="st2" d="M-18.4,551.4c-0.2,0.2-0.3,0.3-0.3,0.5v2h2.9c-0.1,1-0.3,2.1-0.5,3.1h-2.5v9h-3.8v-9h-1.8v-3.1h1.8v-2.5
				c0-0.7,0.1-1.3,0.5-1.9c0.6-1.1,1.8-1.6,3.5-1.6h2.8v3.1h-2.1C-18,551.2-18.2,551.2-18.4,551.4z"/>
		</g>
		<g>
			<path class="st2" d="M38.3,548.7c0.4,0.5,0.7,1,0.7,1.6v13.4c0,0.6-0.2,1.2-0.7,1.6c-0.5,0.5-1,0.7-1.7,0.7H23.3
				c-0.6,0-1.2-0.2-1.6-0.7c-0.5-0.5-0.7-1-0.7-1.6v-13.4c0-0.6,0.2-1.2,0.7-1.6c0.4-0.4,1-0.7,1.6-0.7h13.4
				C37.3,548,37.9,548.2,38.3,548.7z M33.3,550.8v2c0,0.2,0.1,0.4,0.2,0.5c0.2,0.2,0.3,0.3,0.6,0.3h2.1c0.2,0,0.4-0.1,0.6-0.3
				c0.1-0.2,0.2-0.4,0.2-0.5v-2c0-0.2-0.1-0.4-0.2-0.6c-0.2-0.2-0.4-0.3-0.6-0.3h-2.1c-0.2,0-0.4,0.1-0.6,0.3
				C33.4,550.4,33.3,550.6,33.3,550.8z M27.5,554.5c-0.7,0.7-1.1,1.5-1.1,2.5c0,1,0.4,1.8,1.1,2.5c0.7,0.7,1.5,1,2.6,1
				c1,0,1.8-0.4,2.5-1c0.7-0.7,1.1-1.5,1.1-2.5c0-0.9-0.4-1.8-1.1-2.5c-0.7-0.7-1.5-1-2.5-1C29,553.5,28.2,553.8,27.5,554.5z
				 M23,555.5v7.6c0,0.2,0.1,0.3,0.2,0.5c0.2,0.1,0.3,0.2,0.5,0.2h12.5c0.2,0,0.4-0.1,0.5-0.2c0.2-0.2,0.3-0.3,0.3-0.5v-7.6h-1.6
				c0.1,0.5,0.2,1.1,0.2,1.6c0,1.5-0.5,2.8-1.6,3.8c-1.1,1.1-2.4,1.6-3.9,1.6c-1.6,0-2.9-0.5-3.9-1.6c-1.1-1-1.7-2.3-1.7-3.8
				c0-0.5,0.1-1.1,0.2-1.6H23z"/>
		</g>
		<g>
			<path d="M38.3,598.7c0.4,0.5,0.7,1,0.7,1.6v13.4c0,0.6-0.2,1.2-0.7,1.6c-0.5,0.5-1,0.7-1.7,0.7H23.3c-0.6,0-1.2-0.2-1.6-0.7
				c-0.5-0.5-0.7-1-0.7-1.6v-13.4c0-0.6,0.2-1.2,0.7-1.6c0.4-0.4,1-0.7,1.6-0.7h13.4C37.3,598,37.9,598.2,38.3,598.7z M33.3,600.8v2
				c0,0.2,0.1,0.4,0.2,0.5c0.2,0.2,0.3,0.3,0.6,0.3h2.1c0.2,0,0.4-0.1,0.6-0.3c0.1-0.2,0.2-0.4,0.2-0.5v-2c0-0.2-0.1-0.4-0.2-0.6
				c-0.2-0.2-0.4-0.3-0.6-0.3h-2.1c-0.2,0-0.4,0.1-0.6,0.3C33.4,600.4,33.3,600.6,33.3,600.8z M27.5,604.5c-0.7,0.7-1.1,1.5-1.1,2.5
				c0,1,0.4,1.8,1.1,2.5c0.7,0.7,1.5,1,2.6,1c1,0,1.8-0.4,2.5-1c0.7-0.7,1.1-1.5,1.1-2.5c0-0.9-0.4-1.8-1.1-2.5
				c-0.7-0.7-1.5-1-2.5-1C29,603.5,28.2,603.8,27.5,604.5z M24.7,605.5H23v7.6c0,0.2,0.1,0.3,0.2,0.5c0.2,0.1,0.3,0.2,0.5,0.2h12.5
				c0.2,0,0.4-0.1,0.5-0.2c0.2-0.2,0.3-0.3,0.3-0.5v-7.6h-1.6c0.1,0.5,0.2,1.1,0.2,1.6c0,1.5-0.5,2.8-1.6,3.8
				c-1.1,1.1-2.4,1.6-3.9,1.6c-1.6,0-2.9-0.5-3.9-1.6c-1.1-1-1.7-2.3-1.7-3.8C24.4,606.6,24.5,606.1,24.7,605.5z"/>
		</g>
		<g>
			<path class="st2" d="M183.9,548.5c0.6,0,1.2,0.1,1.8,0.3c0.4,0.2,0.8,0.5,1.2,0.8c0,0.1,0.1,0.2,0.1,0.3c0.6-0.2,1.3-0.4,1.9-0.7
				c0.2-0.1,0.5-0.3,0.7-0.4c-0.1,0.5-0.4,0.9-0.6,1.3c0,0.1,0,0.1-0.1,0.1c-0.3,0.3-0.7,0.6-1.1,0.9c0.4,0,0.7-0.1,1.1-0.2
				c0.4-0.1,0.9-0.3,1.3-0.5c-0.4,0.6-0.8,1.1-1.3,1.6c-0.2,0.2-0.5,0.4-0.8,0.6c0,0.1,0,0.3,0,0.6c0,1.5-0.3,2.9-0.8,4.3
				c-0.1,0.4-0.3,0.8-0.5,1.2c-0.5,1-1.1,1.9-1.8,2.7c-0.7,0.8-1.5,1.5-2.3,2.1c-0.4,0.3-0.9,0.5-1.5,0.8c-1.5,0.7-3.2,1.1-5.1,1.1
				c-1.2,0-2.3-0.2-3.4-0.5c-1.1-0.3-2.1-0.8-3-1.4c0.3,0,0.6,0.1,1,0.1c0.3,0,0.6,0,1-0.1c0.6-0.1,1.2-0.2,1.8-0.4
				c0.9-0.3,1.7-0.8,2.4-1.4c-0.9,0-1.7-0.3-2.4-0.9c-0.7-0.5-1.2-1.2-1.5-2.1c0.3,0,0.5,0,0.8,0c0.4,0,0.8,0,1.1-0.1
				c-1-0.2-1.8-0.7-2.4-1.5c-0.7-0.8-1-1.8-1-2.8v-0.1c0.6,0.4,1.3,0.6,2,0.6c-0.6-0.4-1.1-0.9-1.4-1.5c-0.3-0.6-0.5-1.3-0.5-2.1
				c0-0.8,0.2-1.5,0.6-2.1c1.1,1.3,2.3,2.4,3.8,3.1c1.5,0.8,3.1,1.3,4.9,1.4c0-0.3-0.1-0.7-0.1-1c0-1.2,0.4-2.2,1.1-3
				C181.8,548.9,182.8,548.5,183.9,548.5z"/>
		</g>
		<g>
			<path d="M186.9,599.7c0,0.1,0.1,0.2,0.1,0.3c0.6-0.2,1.3-0.4,1.9-0.7c0.2-0.1,0.5-0.3,0.7-0.4c-0.1,0.5-0.4,0.9-0.6,1.3
				c0,0.1,0,0.1-0.1,0.1c-0.3,0.3-0.7,0.6-1.1,0.9c0.4,0,0.7-0.1,1.1-0.2c0.4-0.1,0.9-0.3,1.3-0.5c-0.4,0.6-0.8,1.1-1.3,1.6
				c-0.2,0.2-0.5,0.4-0.8,0.6c0,0.1,0,0.3,0,0.6c0,1.5-0.3,2.9-0.8,4.3c-0.1,0.4-0.3,0.8-0.5,1.2c-0.5,1-1.1,1.9-1.8,2.7
				s-1.5,1.5-2.3,2.1c-0.4,0.3-0.9,0.5-1.5,0.8c-1.5,0.7-3.2,1.1-5.1,1.1c-1.2,0-2.3-0.2-3.4-0.5c-1.1-0.3-2.1-0.8-3-1.4
				c0.3,0,0.6,0.1,1,0.1c0.3,0,0.6,0,1-0.1c0.6-0.1,1.2-0.2,1.8-0.4c0.9-0.3,1.7-0.8,2.4-1.4c-0.9,0-1.7-0.3-2.4-0.9
				c-0.7-0.5-1.2-1.2-1.5-2.1c0.3,0,0.5,0.1,0.8,0.1c0.4,0,0.8,0,1.1-0.1c-1-0.2-1.8-0.7-2.4-1.5c-0.7-0.8-1-1.8-1-2.8v-0.1
				c0.6,0.4,1.3,0.6,2,0.6c-0.6-0.4-1.1-0.9-1.4-1.5c-0.3-0.6-0.5-1.3-0.5-2c0-0.8,0.2-1.5,0.6-2.2c1.1,1.3,2.3,2.4,3.8,3.2
				c1.5,0.8,3.1,1.3,4.9,1.3c0-0.3-0.1-0.7-0.1-1c0-1.2,0.4-2.2,1.1-3c0.8-0.9,1.8-1.3,3-1.3c0.6,0,1.2,0.1,1.8,0.3
				C186.1,599,186.5,599.3,186.9,599.7z"/>
		</g>
		<g>
			<path class="st2" d="M82.3,555.5c0.6-0.6,0.9-1.4,0.9-2.3c0-0.9-0.3-1.6-0.9-2.2c-0.6-0.6-1.3-0.9-2.3-0.9
				c-0.8,0-1.6,0.3-2.2,0.9c-0.6,0.6-0.9,1.4-0.9,2.2c0,0.9,0.3,1.6,0.9,2.3c0.6,0.6,1.4,0.9,2.2,0.9
				C80.9,556.5,81.7,556.2,82.3,555.5z M84.5,548.8c1.2,1.2,1.8,2.7,1.8,4.5c0,1.5-1,4.2-3.1,8.1c-1.1,2-2.1,3.9-3.2,5.5
				c-1-1.7-2.1-3.5-3.1-5.5c-2.1-4-3.2-6.7-3.2-8.1c0-1.7,0.6-3.2,1.8-4.5c1.2-1.2,2.7-1.8,4.4-1.8C81.8,547,83.3,547.6,84.5,548.8z
				"/>
		</g>
		<g>
			<path d="M-18.6,601.9v2h2.9c-0.1,1-0.3,2.1-0.5,3.1h-2.5v9h-3.8v-9h-1.8v-3.1h1.8v-2.5c0-0.7,0.1-1.3,0.5-1.9
				c0.6-1.1,1.8-1.6,3.5-1.6h2.8v3.1h-2.1c-0.2,0-0.4,0.1-0.5,0.3C-18.6,601.6-18.6,601.7-18.6,601.9z"/>
		</g>
		<g>
			<path d="M76.9,603.3c0,0.9,0.3,1.6,0.9,2.3c0.6,0.6,1.4,0.9,2.2,0.9c0.9,0,1.7-0.3,2.3-0.9c0.6-0.6,0.9-1.4,0.9-2.3
				c0-0.9-0.3-1.6-0.9-2.2c-0.6-0.6-1.3-0.9-2.3-0.9c-0.8,0-1.6,0.3-2.2,0.9C77.2,601.7,76.9,602.5,76.9,603.3z M73.8,603.3
				c0-1.7,0.6-3.2,1.8-4.5c1.2-1.2,2.7-1.8,4.4-1.8c1.8,0,3.3,0.6,4.5,1.8c1.2,1.2,1.8,2.7,1.8,4.5c0,1.5-1,4.2-3.1,8.1
				c-1.1,2-2.1,3.9-3.2,5.6c-1-1.7-2.1-3.6-3.1-5.6C74.8,607.5,73.8,604.8,73.8,603.3z"/>
		</g>
		<g>
			<path class="st2" d="M139.1,555.8c0.6,0.7,0.9,1.5,0.9,2.4c0,0.9-0.3,1.7-0.9,2.3c-0.6,0.7-1.4,1-2.4,1c-0.9,0-1.7-0.3-2.3-1
				c-0.6-0.6-0.9-1.4-0.9-2.3c0-0.9,0.3-1.7,0.9-2.4c0.6-0.6,1.4-0.9,2.3-0.9C137.7,554.9,138.5,555.2,139.1,555.8z M137.4,557.4
				c0.2,0.2,0.3,0.5,0.3,0.8c0,0.3-0.1,0.6-0.3,0.8c-0.2,0.2-0.5,0.3-0.8,0.3s-0.6-0.1-0.8-0.3c-0.2-0.2-0.4-0.5-0.4-0.8
				c0-0.3,0.1-0.6,0.4-0.8c0.2-0.2,0.4-0.3,0.8-0.3C136.9,557.1,137.2,557.2,137.4,557.4z M138.4,559.8c0.4-0.4,0.6-1,0.6-1.6
				c0-0.6-0.2-1.2-0.6-1.6c-0.5-0.5-1-0.7-1.6-0.7c-0.6,0-1.1,0.2-1.6,0.7c-0.4,0.4-0.6,1-0.6,1.6c0,0.6,0.2,1.2,0.6,1.6
				c0.5,0.5,1,0.7,1.6,0.7C137.4,560.5,137.9,560.3,138.4,559.8z M122.2,557.5c0.2-0.2,0.5-0.4,0.8-0.4s0.6,0.1,0.8,0.4
				c0.2,0.2,0.4,0.5,0.4,0.8s-0.1,0.6-0.4,0.8c-0.2,0.2-0.4,0.3-0.8,0.3s-0.6-0.1-0.8-0.3c-0.2-0.2-0.3-0.5-0.3-0.8
				S122,557.7,122.2,557.5z M125.5,555.9c0.6,0.6,0.9,1.4,0.9,2.3c0,0.9-0.3,1.7-0.9,2.4c-0.7,0.6-1.4,1-2.4,1s-1.7-0.3-2.3-1
				c-0.7-0.6-1-1.4-1-2.4c0-0.9,0.3-1.7,1-2.3c0.6-0.7,1.4-1,2.3-1S124.8,555.2,125.5,555.9z M125.4,558.2c0-0.6-0.2-1.2-0.7-1.6
				c-0.4-0.4-1-0.6-1.6-0.6s-1.2,0.2-1.6,0.6c-0.4,0.4-0.6,1-0.6,1.6c0,0.6,0.2,1.2,0.6,1.6c0.4,0.5,1,0.7,1.6,0.7s1.2-0.2,1.6-0.7
				C125.2,559.4,125.4,558.8,125.4,558.2z M127.1,554.3c-1.1-1.1-2.4-1.6-3.9-1.6s-2.8,0.5-3.9,1.6c-1.1,1.1-1.6,2.4-1.6,3.9
				c0,1.5,0.5,2.8,1.6,3.8c1.1,1.1,2.4,1.6,3.9,1.6s2.8-0.5,3.9-1.6c1.1-1.1,1.6-2.3,1.6-3.8C128.7,556.7,128.2,555.4,127.1,554.3z
				 M140.6,554.3c-1.1-1.1-2.4-1.6-3.9-1.6c-1.5,0-2.8,0.5-3.9,1.6c-1.1,1.1-1.6,2.4-1.6,3.9c0,1.5,0.5,2.8,1.6,3.8
				c1.1,1.1,2.4,1.6,3.9,1.6c1.5,0,2.8-0.5,3.9-1.6c1.1-1.1,1.6-2.3,1.6-3.8C142.3,556.7,141.7,555.4,140.6,554.3z M136.6,551.5
				c-0.5-0.2-1-0.4-1.6-0.5l-5-0.8l-2.7,0.2c-0.3,0-0.6,0.1-0.9,0.2c-1.2,0.2-2.2,0.5-3.2,1l2.6,0.5c0.8,0.3,1.6,0.8,2.3,1.5
				c1.1,1.2,1.8,2.5,1.9,4.1c0,0.2,0,0.4,0,0.6c0-1.8,0.7-3.4,1.9-4.6c0.6-0.6,1.3-1.1,2.1-1.5L136.6,551.5L136.6,551.5L136.6,551.5
				z M143.6,551.5c-0.3,0.4-0.6,0.9-0.9,1.4c-0.2,0.5-0.4,0.9-0.4,1.3c0.9,1.2,1.3,2.5,1.3,4c0,1.9-0.7,3.5-2,4.8
				c-1.3,1.3-2.9,1.9-4.8,1.9c-1,0-2-0.2-2.9-0.6c-0.9-0.4-1.6-1-2.3-1.9c-0.3,0.5-0.8,1.2-1.5,2.2c-0.1-0.2-0.3-0.5-0.6-1
				c-0.4-0.5-0.7-0.9-0.9-1.2c-0.6,0.8-1.4,1.4-2.3,1.9c-0.9,0.4-1.9,0.6-2.9,0.6c-1.9,0-3.5-0.6-4.8-1.9c-1.3-1.3-2-2.9-2-4.8
				c0-1.5,0.4-2.8,1.3-4c-0.1-0.4-0.2-0.8-0.4-1.3c-0.3-0.5-0.6-1-0.9-1.4h4.3c1.2-0.8,2.6-1.4,4.2-1.9c1.6-0.5,3.3-0.7,5.1-0.7
				s3.4,0.2,5.1,0.7c1.5,0.4,2.9,1.1,4.1,1.9H143.6z"/>
		</g>
		<g>
			<path d="M138.4,609.8c0.4-0.4,0.6-1,0.6-1.6c0-0.6-0.2-1.2-0.6-1.6c-0.5-0.5-1-0.7-1.6-0.7c-0.6,0-1.1,0.2-1.6,0.7
				c-0.4,0.4-0.6,1-0.6,1.6c0,0.6,0.2,1.2,0.6,1.6c0.5,0.5,1,0.7,1.6,0.7C137.4,610.5,137.9,610.3,138.4,609.8z M137.4,607.4
				c0.2,0.2,0.3,0.5,0.3,0.8c0,0.3-0.1,0.6-0.3,0.8c-0.2,0.2-0.5,0.3-0.8,0.3s-0.6-0.1-0.8-0.3c-0.2-0.2-0.4-0.5-0.4-0.8
				c0-0.3,0.1-0.6,0.4-0.8c0.2-0.2,0.4-0.3,0.8-0.3C136.9,607.1,137.2,607.2,137.4,607.4z M139.1,605.8c0.6,0.7,0.9,1.5,0.9,2.4
				c0,0.9-0.3,1.7-0.9,2.3c-0.6,0.7-1.4,1-2.4,1c-0.9,0-1.7-0.3-2.3-1c-0.6-0.6-0.9-1.4-0.9-2.3c0-0.9,0.3-1.7,0.9-2.4
				c0.6-0.6,1.4-0.9,2.3-0.9C137.7,604.9,138.5,605.2,139.1,605.8z M124.8,609.8c0.5-0.4,0.7-1,0.7-1.6c0-0.6-0.2-1.2-0.7-1.6
				c-0.4-0.4-1-0.6-1.6-0.6s-1.2,0.2-1.6,0.6c-0.4,0.4-0.6,1-0.6,1.6c0,0.6,0.2,1.2,0.6,1.6c0.4,0.5,1,0.7,1.6,0.7
				S124.3,610.3,124.8,609.8z M126.4,608.2c0,0.9-0.3,1.7-0.9,2.4c-0.7,0.6-1.4,0.9-2.4,0.9s-1.7-0.3-2.3-0.9c-0.7-0.6-1-1.4-1-2.4
				c0-0.9,0.3-1.7,1-2.3c0.6-0.7,1.4-1,2.3-1s1.7,0.3,2.4,1C126.1,606.5,126.4,607.3,126.4,608.2z M123,607.1c0.3,0,0.6,0.1,0.8,0.4
				c0.2,0.2,0.4,0.4,0.4,0.8c0,0.3-0.1,0.6-0.4,0.8c-0.2,0.2-0.4,0.3-0.8,0.3s-0.6-0.1-0.8-0.3c-0.2-0.2-0.3-0.5-0.3-0.8
				c0-0.3,0.1-0.6,0.3-0.8C122.4,607.2,122.7,607.1,123,607.1z M127.1,604.3c-1.1-1.1-2.4-1.6-3.9-1.6s-2.8,0.5-3.9,1.6
				c-1.1,1.1-1.6,2.4-1.6,3.9c0,1.5,0.5,2.8,1.6,3.8c1.1,1.1,2.4,1.6,3.9,1.6s2.8-0.5,3.9-1.6c1.1-1.1,1.6-2.3,1.6-3.8
				C128.7,606.7,128.2,605.4,127.1,604.3z M136.8,602.8c-1.5,0-2.8,0.5-3.9,1.6c-1.1,1.1-1.6,2.4-1.6,3.9c0,1.5,0.5,2.8,1.6,3.8
				c1.1,1.1,2.4,1.6,3.9,1.6c1.5,0,2.8-0.5,3.9-1.6c1.1-1.1,1.6-2.3,1.6-3.8c0-1.5-0.5-2.8-1.6-3.9S138.3,602.8,136.8,602.8z
				 M136.5,601.5L136.5,601.5c-0.4-0.2-1-0.4-1.5-0.5l-5-0.8l-2.7,0.2c-0.3,0-0.6,0.1-0.9,0.2c-1.2,0.2-2.2,0.5-3.2,1l2.6,0.5
				c0.8,0.3,1.6,0.8,2.3,1.5c1.1,1.2,1.8,2.5,1.9,4.1c0,0.2,0,0.4,0,0.6c0-1.8,0.7-3.4,1.9-4.6c0.6-0.6,1.3-1.1,2.1-1.5L136.5,601.5
				z M143.6,601.5c-0.3,0.4-0.6,0.9-0.9,1.4c-0.2,0.5-0.4,0.9-0.4,1.3c0.9,1.2,1.3,2.5,1.3,4c0,1.9-0.7,3.5-2,4.8
				c-1.3,1.3-2.9,1.9-4.8,1.9c-1,0-2-0.2-2.9-0.6c-0.9-0.4-1.6-1-2.3-1.9c-0.3,0.5-0.8,1.2-1.5,2.2c-0.1-0.2-0.3-0.5-0.6-1
				c-0.4-0.5-0.7-0.9-0.9-1.2c-0.6,0.8-1.4,1.4-2.3,1.9c-0.9,0.4-1.9,0.6-2.9,0.6c-1.9,0-3.5-0.6-4.8-1.9c-1.3-1.3-2-2.9-2-4.8
				c0-1.5,0.4-2.8,1.3-4c-0.1-0.4-0.2-0.8-0.4-1.3c-0.3-0.5-0.6-1-0.9-1.4h4.3c1.2-0.8,2.6-1.4,4.2-1.9c1.6-0.5,3.3-0.7,5.1-0.7
				s3.4,0.2,5.1,0.7c1.5,0.4,2.9,1.1,4.1,1.9H143.6z"/>
		</g>
	</g>
</g>
<g>
	<path d="M27.1,250.5v0.8c-1.1,0.1-1.9,0.2-2.6,0.4c-0.6,0.2-1.2,0.6-1.8,1.1c-0.8,0.7-1.3,1.6-1.6,2.8c-0.3,1.1-0.4,2.9-0.4,5.3v30
		c0,3-0.2,5.4-0.6,7c-0.4,1.6-1.1,3-2.2,4.2c-1.1,1.1-2.5,2.1-4.3,2.8c-1.8,0.7-3.7,1.1-5.6,1.1c-1.1,0-2.2-0.1-3.3-0.4
		c-1.1-0.3-1.9-0.6-2.6-1.1c-1.2-0.8-1.8-1.9-1.8-3.2c0-0.8,0.2-1.5,0.7-2c0.5-0.5,1.1-0.8,1.8-0.8c0.7,0,1.3,0.3,1.8,0.8
		c0.2,0.3,0.5,0.6,0.6,1c0.2,0.4,0.5,1.1,0.8,2.2c0.3,1,0.7,1.7,1.2,2.1s1.1,0.6,1.8,0.6c1,0,1.8-0.3,2.5-1s1.3-1.7,1.6-3
		c0.5-1.8,0.8-5.3,0.8-10.4v-29.7c0-1.4-0.1-2.7-0.3-3.8c-0.2-1.5-0.7-2.6-1.5-3.4c-1.2-1.4-2.8-2.1-4.8-2.3v-0.8H27.1z"/>
	<path d="M50.8,296.9c-0.3-1.4-0.4-2.8-0.4-4.2c-2.5,2.8-5.5,4.2-9,4.2c-2.5,0-4.5-0.7-6.1-2c-1.5-1.3-2.2-3.2-2.2-5.7v-11.7l0-2.6
		c0-1.5-0.1-2.6-0.2-3.3c-0.2-0.7-0.5-1.3-0.9-1.8c-0.6-0.6-1.6-1.1-3.1-1.3v-0.7h8.9v17c0,2.4,0.1,4.2,0.2,5.3
		c0.2,1.2,0.4,2.1,0.8,2.8c0.4,0.8,1.1,1.4,1.9,1.8c0.8,0.4,1.7,0.7,2.8,0.7c1.1,0,2.2-0.2,3.2-0.7c1-0.5,1.8-1.2,2.3-2
		c0.6-0.9,1-1.9,1.2-3c0.2-1.1,0.3-3,0.3-5.6v-6.6l0-2.5c0-1.5-0.1-2.6-0.2-3.3c-0.2-0.7-0.5-1.3-0.9-1.8c-0.6-0.6-1.6-1.1-3.1-1.3
		v-0.7h8.9V286c0,2.3,0.1,3.9,0.2,4.8c0.1,0.9,0.3,1.7,0.6,2.3c0.4,0.6,0.8,1.1,1.3,1.4c0.5,0.3,1.2,0.5,2.1,0.5v0.7L50.8,296.9z"/>
	<path d="M69.3,267.3c0.4,1.6,0.6,3.1,0.7,4.7c1.3-1.5,2.7-2.7,4.3-3.5c1.6-0.8,3.2-1.2,4.9-1.2c1.9,0,3.5,0.5,4.7,1.6
		c0.8,0.6,1.6,1.8,2.6,3.4c1.5-1.7,3.1-3,4.6-3.8c1.6-0.8,3.2-1.2,5-1.2c2.4,0,4.4,0.7,5.9,2.2c1.5,1.5,2.3,3.4,2.3,5.8v11.4l0,2.6
		c0,1.5,0.1,2.6,0.2,3.3c0.2,0.7,0.5,1.3,0.9,1.8c0.6,0.6,1.6,1.1,3.1,1.4v0.7H95.4v-0.7c1.2-0.2,2.1-0.4,2.6-0.8
		c0.5-0.3,0.9-0.9,1.3-1.7c0.2-0.5,0.4-1.3,0.5-2.3c0.1-1,0.1-2.5,0.1-4.5V280c0-2.5-0.1-4.3-0.2-5.4s-0.4-2.1-0.8-2.9
		c-0.9-1.9-2.6-2.9-4.9-2.9c-2.5,0-4.3,1-5.4,3.1c-1,1.8-1.5,4.5-1.5,8.3v6.5l0,2.5c0,1.5,0.1,2.6,0.2,3.3s0.5,1.3,0.9,1.8
		c0.6,0.6,1.6,1.1,3.1,1.4v0.7H78v-0.7c1.2-0.2,2.1-0.4,2.6-0.8c0.5-0.3,0.9-0.9,1.3-1.7c0.2-0.5,0.4-1.3,0.5-2.3
		c0.1-1,0.1-2.5,0.1-4.5v-6.2c0-2.6-0.1-4.5-0.2-5.8c-0.2-1.2-0.4-2.2-0.9-3c-0.4-0.8-1.1-1.4-1.9-1.9c-0.8-0.5-1.7-0.7-2.7-0.7
		c-1.1,0-2.2,0.3-3.2,0.9s-1.8,1.4-2.4,2.4c-0.5,0.9-0.9,2-1.2,3.3c-0.2,1.3-0.3,2.9-0.3,5v6.1l0,2.5c0,1.5,0.1,2.6,0.2,3.3
		c0.2,0.7,0.5,1.3,0.9,1.8c0.6,0.6,1.6,1.1,3.1,1.4v0.7H60.7v-0.7c1.2-0.2,2.1-0.4,2.6-0.8c0.5-0.3,0.9-0.9,1.3-1.7
		c0.2-0.5,0.4-1.3,0.5-2.3c0.1-1,0.1-2.5,0.1-4.5v-8.3c0-2.3-0.1-3.9-0.2-4.8c-0.1-0.9-0.3-1.7-0.7-2.3c-0.3-0.6-0.8-1.1-1.2-1.4
		c-0.5-0.3-1.2-0.5-2.1-0.5v-0.7L69.3,267.3z"/>
	<path d="M119.5,293.5l0,6.2v2.3c0,1.5,0.1,2.6,0.2,3.3c0.2,0.7,0.5,1.3,0.9,1.8c0.6,0.6,1.6,1,3.1,1.3v0.7h-13.4v-0.7
		c1.2-0.2,2.1-0.4,2.6-0.7c0.5-0.3,0.9-0.9,1.3-1.6c0.2-0.5,0.4-1.3,0.5-2.3c0.1-1.1,0.1-2.6,0.1-4.5V276c0-2.5-0.4-4.3-1.1-5.4
		s-1.9-1.6-3.6-1.6v-0.8l8.8-1.4c0.2,1.1,0.3,2.1,0.3,3v0.6c1.5-1.1,2.9-1.9,4.2-2.4c1.3-0.5,2.7-0.7,4.3-0.7c3.1,0,5.7,1,7.9,3.1
		c1.4,1.3,2.4,2.9,3.2,4.9c0.7,1.9,1.1,4.1,1.1,6.5c0,2.4-0.4,4.7-1.2,6.8s-1.9,3.8-3.4,5.2c-2.3,2.2-5,3.3-8.2,3.3
		c-1.5,0-2.8-0.2-3.9-0.7C122.2,295.7,120.9,294.8,119.5,293.5z M119.5,282.4c0,3.1,0.1,5.4,0.4,7s0.7,2.8,1.3,3.8
		c0.6,0.9,1.3,1.5,2.2,2c0.9,0.5,1.8,0.8,2.8,0.8c2.1,0,4-1.1,5.6-3.4c1-1.3,1.7-2.9,2.2-4.8c0.5-1.8,0.8-3.8,0.8-5.7
		c0-1.9-0.2-3.8-0.7-5.7c-0.5-1.8-1.2-3.4-2.1-4.8c-1.5-2.3-3.3-3.4-5.5-3.4c-1.1,0-2.1,0.3-3,0.9c-0.9,0.6-1.7,1.4-2.3,2.4
		c-0.6,1.1-1.1,2.4-1.3,4C119.6,277.1,119.5,279.4,119.5,282.4z"/>
	<path d="M151.9,293.5l0,6.2v2.3c0,1.5,0.1,2.6,0.2,3.3c0.2,0.7,0.5,1.3,0.9,1.8c0.6,0.6,1.6,1,3.1,1.3v0.7h-13.4v-0.7
		c1.2-0.2,2.1-0.4,2.6-0.7c0.5-0.3,0.9-0.9,1.3-1.6c0.2-0.5,0.4-1.3,0.5-2.3c0.1-1.1,0.1-2.6,0.1-4.5V276c0-2.5-0.4-4.3-1.1-5.4
		s-1.9-1.6-3.6-1.6v-0.8l8.8-1.4c0.2,1.1,0.3,2.1,0.3,3v0.6c1.5-1.1,2.9-1.9,4.2-2.4c1.3-0.5,2.7-0.7,4.3-0.7c3.1,0,5.7,1,7.9,3.1
		c1.4,1.3,2.4,2.9,3.2,4.9c0.7,1.9,1.1,4.1,1.1,6.5c0,2.4-0.4,4.7-1.2,6.8s-1.9,3.8-3.4,5.2c-2.3,2.2-5,3.3-8.2,3.3
		c-1.5,0-2.8-0.2-3.9-0.7C154.6,295.7,153.4,294.8,151.9,293.5z M151.9,282.4c0,3.1,0.1,5.4,0.4,7s0.7,2.8,1.3,3.8
		c0.6,0.9,1.3,1.5,2.2,2c0.9,0.5,1.8,0.8,2.8,0.8c2.1,0,4-1.1,5.6-3.4c1-1.3,1.7-2.9,2.2-4.8c0.5-1.8,0.8-3.8,0.8-5.7
		c0-1.9-0.2-3.8-0.7-5.7c-0.5-1.8-1.2-3.4-2.1-4.8c-1.5-2.3-3.3-3.4-5.5-3.4c-1.1,0-2.1,0.3-3,0.9c-0.9,0.6-1.7,1.4-2.3,2.4
		c-0.6,1.1-1.1,2.4-1.3,4C152,277.1,151.9,279.4,151.9,282.4z"/>
</g>
<g>
	<path d="M280,179.6v0.8c-1.1,0.1-1.9,0.2-2.6,0.4c-0.6,0.2-1.2,0.6-1.8,1.1c-0.8,0.7-1.3,1.6-1.6,2.8c-0.3,1.1-0.4,2.9-0.4,5.3v30
		c0,3-0.2,5.4-0.6,7c-0.4,1.6-1.1,3-2.2,4.2c-1.1,1.1-2.5,2.1-4.3,2.8c-1.8,0.7-3.7,1.1-5.6,1.1c-1.1,0-2.2-0.1-3.3-0.4
		c-1.1-0.3-1.9-0.6-2.6-1.1c-1.2-0.8-1.8-1.9-1.8-3.2c0-0.8,0.2-1.5,0.7-2c0.5-0.5,1.1-0.8,1.8-0.8c0.7,0,1.3,0.3,1.8,0.8
		c0.2,0.3,0.5,0.6,0.6,1c0.2,0.4,0.5,1.1,0.8,2.2c0.3,1,0.7,1.7,1.2,2.1s1.1,0.6,1.8,0.6c1,0,1.8-0.3,2.5-1s1.3-1.7,1.6-3
		c0.5-1.8,0.8-5.3,0.8-10.4V190c0-1.4-0.1-2.7-0.3-3.8c-0.2-1.5-0.7-2.6-1.5-3.4c-1.2-1.4-2.8-2.1-4.8-2.3v-0.8H280z"/>
	<path d="M303.6,226.1c-0.3-1.4-0.4-2.8-0.4-4.2c-2.5,2.8-5.5,4.2-9,4.2c-2.5,0-4.5-0.7-6.1-2c-1.5-1.3-2.2-3.2-2.2-5.7v-11.7l0-2.6
		c0-1.5-0.1-2.6-0.2-3.3c-0.2-0.7-0.5-1.3-0.9-1.8c-0.6-0.6-1.6-1.1-3.1-1.3v-0.7h8.9v17c0,2.4,0.1,4.2,0.2,5.3
		c0.2,1.2,0.4,2.1,0.8,2.8c0.4,0.8,1.1,1.4,1.9,1.8c0.8,0.4,1.7,0.7,2.8,0.7c1.1,0,2.2-0.2,3.2-0.7c1-0.5,1.8-1.2,2.3-2
		c0.6-0.9,1-1.9,1.2-3c0.2-1.1,0.3-3,0.3-5.6v-6.6l0-2.5c0-1.5-0.1-2.6-0.2-3.3c-0.2-0.7-0.5-1.3-0.9-1.8c-0.6-0.6-1.6-1.1-3.1-1.3
		v-0.7h8.9v18.2c0,2.3,0.1,3.9,0.2,4.8c0.1,0.9,0.3,1.7,0.6,2.3c0.4,0.6,0.8,1.1,1.3,1.4c0.5,0.3,1.2,0.5,2.1,0.5v0.7L303.6,226.1z"
		/>
	<path d="M322.2,196.4c0.4,1.6,0.6,3.1,0.7,4.7c1.3-1.5,2.7-2.7,4.3-3.5c1.6-0.8,3.2-1.2,4.9-1.2c1.9,0,3.5,0.5,4.7,1.6
		c0.8,0.6,1.6,1.8,2.6,3.4c1.5-1.7,3.1-3,4.6-3.8c1.6-0.8,3.2-1.2,5-1.2c2.4,0,4.4,0.7,5.9,2.2c1.5,1.5,2.3,3.4,2.3,5.8v11.4l0,2.6
		c0,1.5,0.1,2.6,0.2,3.3c0.2,0.7,0.5,1.3,0.9,1.8c0.6,0.6,1.6,1.1,3.1,1.4v0.7h-13.4v-0.7c1.2-0.2,2.1-0.4,2.6-0.8
		c0.5-0.3,0.9-0.9,1.3-1.7c0.2-0.5,0.4-1.3,0.5-2.3c0.1-1,0.1-2.5,0.1-4.5v-6.4c0-2.5-0.1-4.3-0.2-5.4s-0.4-2.1-0.8-2.9
		c-0.9-1.9-2.6-2.9-4.9-2.9c-2.5,0-4.3,1-5.4,3.1c-1,1.8-1.5,4.5-1.5,8.3v6.5l0,2.5c0,1.5,0.1,2.6,0.2,3.3s0.5,1.3,0.9,1.8
		c0.6,0.6,1.6,1.1,3.1,1.4v0.7h-13.4v-0.7c1.2-0.2,2.1-0.4,2.6-0.8c0.5-0.3,0.9-0.9,1.3-1.7c0.2-0.5,0.4-1.3,0.5-2.3
		c0.1-1,0.1-2.5,0.1-4.5v-6.2c0-2.6-0.1-4.5-0.2-5.8c-0.2-1.2-0.4-2.2-0.9-3c-0.4-0.8-1.1-1.4-1.9-1.9c-0.8-0.5-1.7-0.7-2.7-0.7
		c-1.1,0-2.2,0.3-3.2,0.9s-1.8,1.4-2.4,2.4c-0.5,0.9-0.9,2-1.2,3.3c-0.2,1.3-0.3,2.9-0.3,5v6.1l0,2.5c0,1.5,0.1,2.6,0.2,3.3
		c0.2,0.7,0.5,1.3,0.9,1.8c0.6,0.6,1.6,1.1,3.1,1.4v0.7h-13.4v-0.7c1.2-0.2,2.1-0.4,2.6-0.8c0.5-0.3,0.9-0.9,1.3-1.7
		c0.2-0.5,0.4-1.3,0.5-2.3c0.1-1,0.1-2.5,0.1-4.5v-8.3c0-2.3-0.1-3.9-0.2-4.8c-0.1-0.9-0.3-1.7-0.7-2.3c-0.3-0.6-0.8-1.1-1.2-1.4
		c-0.5-0.3-1.2-0.5-2.1-0.5v-0.7L322.2,196.4z"/>
	<path d="M372.4,222.7l0,6.2v2.3c0,1.5,0.1,2.6,0.2,3.3c0.2,0.7,0.5,1.3,0.9,1.8c0.6,0.6,1.6,1,3.1,1.3v0.7h-13.4v-0.7
		c1.2-0.2,2.1-0.4,2.6-0.7c0.5-0.3,0.9-0.9,1.3-1.6c0.2-0.5,0.4-1.3,0.5-2.3c0.1-1.1,0.1-2.6,0.1-4.5v-23.2c0-2.5-0.4-4.3-1.1-5.4
		s-1.9-1.6-3.6-1.6v-0.8l8.8-1.4c0.2,1.1,0.3,2.1,0.3,3v0.6c1.5-1.1,2.9-1.9,4.2-2.4c1.3-0.5,2.7-0.7,4.3-0.7c3.1,0,5.7,1,7.9,3.1
		c1.4,1.3,2.4,2.9,3.2,4.9c0.7,1.9,1.1,4.1,1.1,6.5c0,2.4-0.4,4.7-1.2,6.8s-1.9,3.8-3.4,5.2c-2.3,2.2-5,3.3-8.2,3.3
		c-1.5,0-2.8-0.2-3.9-0.7C375.1,224.9,373.8,224,372.4,222.7z M372.4,211.5c0,3.1,0.1,5.4,0.4,7s0.7,2.8,1.3,3.8
		c0.6,0.9,1.3,1.5,2.2,2c0.9,0.5,1.8,0.8,2.8,0.8c2.1,0,4-1.1,5.6-3.4c1-1.3,1.7-2.9,2.2-4.8c0.5-1.8,0.8-3.8,0.8-5.7
		c0-1.9-0.2-3.8-0.7-5.7c-0.5-1.8-1.2-3.4-2.1-4.8c-1.5-2.3-3.3-3.4-5.5-3.4c-1.1,0-2.1,0.3-3,0.9c-0.9,0.6-1.7,1.4-2.3,2.4
		c-0.6,1.1-1.1,2.4-1.3,4C372.5,206.3,372.4,208.6,372.4,211.5z"/>
	<path d="M404.8,222.7l0,6.2v2.3c0,1.5,0.1,2.6,0.2,3.3c0.2,0.7,0.5,1.3,0.9,1.8c0.6,0.6,1.6,1,3.1,1.3v0.7h-13.4v-0.7
		c1.2-0.2,2.1-0.4,2.6-0.7c0.5-0.3,0.9-0.9,1.3-1.6c0.2-0.5,0.4-1.3,0.5-2.3c0.1-1.1,0.1-2.6,0.1-4.5v-23.2c0-2.5-0.4-4.3-1.1-5.4
		s-1.9-1.6-3.6-1.6v-0.8l8.8-1.4c0.2,1.1,0.3,2.1,0.3,3v0.6c1.5-1.1,2.9-1.9,4.2-2.4c1.3-0.5,2.7-0.7,4.3-0.7c3.1,0,5.7,1,7.9,3.1
		c1.4,1.3,2.4,2.9,3.2,4.9c0.7,1.9,1.1,4.1,1.1,6.5c0,2.4-0.4,4.7-1.2,6.8s-1.9,3.8-3.4,5.2c-2.3,2.2-5,3.3-8.2,3.3
		c-1.5,0-2.8-0.2-3.9-0.7C407.5,224.9,406.2,224,404.8,222.7z M404.8,211.5c0,3.1,0.1,5.4,0.4,7s0.7,2.8,1.3,3.8
		c0.6,0.9,1.3,1.5,2.2,2c0.9,0.5,1.8,0.8,2.8,0.8c2.1,0,4-1.1,5.6-3.4c1-1.3,1.7-2.9,2.2-4.8c0.5-1.8,0.8-3.8,0.8-5.7
		c0-1.9-0.2-3.8-0.7-5.7c-0.5-1.8-1.2-3.4-2.1-4.8c-1.5-2.3-3.3-3.4-5.5-3.4c-1.1,0-2.1,0.3-3,0.9c-0.9,0.6-1.7,1.4-2.3,2.4
		c-0.6,1.1-1.1,2.4-1.3,4C404.9,206.3,404.8,208.6,404.8,211.5z"/>
</g>
</svg>
