<?xml version="1.0" encoding="UTF-8" standalone="no"?>
<!DOCTYPE svg PUBLIC "-//W3C//DTD SVG 1.1//EN" "http://www.w3.org/Graphics/SVG/1.1/DTD/svg11.dtd">
<svg width="100%" height="100%" viewBox="0 0 262 263" version="1.1" xmlns="http://www.w3.org/2000/svg" xmlns:xlink="http://www.w3.org/1999/xlink" xml:space="preserve" xmlns:serif="http://www.serif.com/" style="fill-rule:evenodd;clip-rule:evenodd;stroke-linejoin:round;stroke-miterlimit:2;">
    <g id="Layer_1">
    </g>
    <g id="Layer_1_2_">
    </g>
    <g transform="matrix(0.965024,0,0,1.00733,-1.51705,-1.27618)">
        <rect id="Artboard1" x="1.572" y="1.267" width="271.081" height="260.579" style="fill:none;"/>
        <g id="Artboard11" serif:id="Artboard1">
            <g id="Layer_1_1_" transform="matrix(1.03624,0,0,0.992721,43.9205,-143.759)">
                <g>
                    <path d="M220,277C220,312.9 207.3,343.5 181.9,368.9C156.5,394.3 125.9,406.9 90,406.9C54.1,406.9 23.4,394.2 -1.9,368.8C-27.3,343.5 -40,312.9 -40,277C-40,241.1 -27.3,210.4 -2,185.1C23.3,159.8 54.1,147 90,147C125.9,147 156.5,159.7 181.9,185.1C207.3,210.4 220,241.1 220,277Z" style="fill:white;fill-rule:nonzero;"/>
                </g>
            </g>
            <g id="Layer_3" transform="matrix(1.03624,0,0,0.992721,43.9205,-143.759)">
                <g>
                    <path d="M130.8,236.1C130.2,235.8 129.5,235.9 128.9,236.3C128.4,236.7 128,237.2 127.8,237.8L126.7,240.6C126.5,241 126.7,241.3 127.1,241.5L128.1,241.9L127.7,243L122.6,240.9L123,239.9L123.9,240.2C124.3,240.4 124.7,240.2 124.8,239.8L126.4,235.7C126.5,235.2 126.4,234.9 126,234.8L125.1,234.4L125.5,233.3L128.9,234.7L128.5,236C129.1,235.6 129.5,235.4 129.9,235.3C130.3,235.2 130.7,235.2 131.2,235.4C131.7,235.6 132.1,235.9 132.3,236.4C132.6,236.9 132.6,237.4 132.4,237.9C132.2,238.3 132,238.6 131.7,238.8C131.4,239 131,239 130.6,238.9C130.3,238.8 130.1,238.6 129.9,238.3C129.8,238 129.8,237.7 129.8,237.4C129.9,237.1 130.1,236.9 130.4,236.8C130.7,236.7 131,236.7 131.3,236.8C131.3,236.4 131.1,236.3 130.8,236.1ZM167.5,256.3L170.5,256.3C171,256.3 171.4,256.4 171.6,256.6C172,256.9 172.2,257.2 172.2,257.7C172.2,258.1 172.1,258.4 171.8,258.6C171.6,258.9 171.3,259 170.9,259.1L171.7,260.3C172.2,260.9 172.6,261.3 172.8,261.5L172.8,261.7L171.6,261.7C171.4,261.7 171.2,261.4 170.9,260.9C170.4,259.9 170.1,259.4 170,259.3L169.4,259.3L169.4,260.8C169.4,261.1 169.4,261.3 169.5,261.3C169.6,261.4 169.8,261.4 170.1,261.4L170.1,261.7L167.5,261.7L167.5,261.4C167.9,261.4 168.1,261.4 168.1,261.3C168.1,261.2 168.2,261.1 168.2,260.8L168.2,257.2C168.2,256.9 168.2,256.8 168.1,256.7C168,256.6 167.8,256.6 167.5,256.6L167.5,256.3ZM170,256.5L169.4,256.5L169.4,258.9L170,258.9C170.6,258.9 170.9,258.5 170.9,257.6C170.9,256.9 170.6,256.5 170,256.5ZM170.1,254C171.5,254 172.7,254.5 173.7,255.4C174.7,256.4 175.1,257.6 175.1,259C175.1,260.4 174.6,261.6 173.7,262.5C172.8,263.5 171.6,264 170.1,264C168.7,264 167.5,263.5 166.5,262.5C165.5,261.6 165.1,260.4 165.1,259C165.1,257.6 165.6,256.4 166.5,255.4C167.4,254.5 168.7,254 170.1,254ZM167.2,256C166.4,256.8 166.1,257.8 166.1,259C166.1,260.2 166.5,261.2 167.2,262C168,262.9 169,263.3 170.1,263.3C171.2,263.3 172.1,262.9 172.9,262C173.7,261.2 174.1,260.2 174.1,259C174.1,257.8 173.7,256.9 172.9,256C172.1,255.1 171.2,254.7 170.1,254.7C169,254.7 168,255.1 167.2,256ZM58.9,230.9C59.9,230.6 60.8,230.6 61.6,230.9C62.4,231.2 62.9,231.7 63.1,232.4C63.2,232.8 63.2,233.1 63,233.4C62.9,233.8 62.6,234 62.2,234.1C61.9,234.2 61.5,234.2 61.3,234.1C61,234 60.7,233.8 60.6,233.4C60.4,232.7 60.7,232.3 61.3,232C60.9,231.7 60.3,231.6 59.5,231.8C58.7,232 58.2,232.5 58,233.3C57.8,233.9 57.9,234.6 58.1,235.3C58.3,236.1 58.6,236.7 59,237.2C59.6,237.8 60.3,237.9 61.1,237.7C61.6,237.6 62,237.3 62.2,236.8C62.4,236.3 62.5,235.7 62.4,235.1L63.7,234.8C64.2,237.2 63.3,238.7 61,239.3C59.7,239.7 58.6,239.6 57.7,239C56.8,238.5 56.2,237.5 55.8,236.2C55.5,235 55.6,233.8 56.2,232.8C56.9,231.8 57.8,231.1 58.9,230.9ZM44.9,232.1C45.2,232 45.6,232 45.9,232.1C46.2,232.2 46.4,232.4 46.6,232.8C46.8,233.1 46.8,233.4 46.6,233.7C46.5,234 46.3,234.2 45.9,234.4C45.6,234.5 45.2,234.5 44.9,234.4C44.6,234.2 44.4,234 44.2,233.7C44,233.4 44,233.1 44.2,232.8C44.4,232.5 44.7,232.2 44.9,232.1ZM44.2,236.4L47.5,235L49.9,240.9C50.1,241.3 50.4,241.4 50.8,241.2L51.6,240.9L52,242L47.2,244L46.8,242.9L47.6,242.6C48,242.4 48.2,242.1 48,241.7L46.3,237.6C46.2,237.2 45.9,237 45.4,237.2L44.6,237.5L44.2,236.4ZM76.4,228.9C77.1,229.7 77.5,230.7 77.6,231.8L72,232.6C72.1,233.4 72.3,234 72.7,234.5C73.1,235.1 73.7,235.3 74.4,235.1C75.6,235 76.2,234.3 76.2,233L77.6,232.7C77.7,234.8 76.6,236.1 74.3,236.4C73,236.6 71.9,236.4 71.1,235.8C70.3,235.2 69.8,234.1 69.6,232.7C69.4,231.4 69.6,230.3 70.3,229.4C70.9,228.5 71.9,227.9 73.1,227.8C74.4,227.6 75.5,228 76.4,228.9ZM71.8,231.5L75.1,231C74.9,229.6 74.3,228.9 73.3,229.1C72.2,229.2 71.8,230 71.8,231.5ZM95,224.9L94.3,224.8L94.4,223.7L97.8,224.1L97.4,228.5L97.5,228.5C98.2,227.7 99.1,227.3 99.9,227.4C101.1,227.5 102,228.1 102.5,229C103,229.8 103.2,230.8 103.1,231.9C103,233.4 102.6,234.5 101.9,235.2C101.2,235.9 100.3,236.2 99,236.1C98.4,236.1 98,235.9 97.6,235.7C97.2,235.5 96.8,235.1 96.5,234.6L95.7,235.4L94.6,235.3L95.5,225.5C95.6,225.1 95.4,224.9 95,224.9ZM100.6,229.5C100.4,229 99.9,228.7 99.2,228.6C98,228.5 97.3,229.4 97.1,231.4C97,232.5 97,233.3 97.2,233.7C97.4,234.2 97.9,234.4 98.6,234.5C99.8,234.6 100.5,233.7 100.7,231.7C100.8,230.7 100.8,229.9 100.6,229.5ZM116.5,231.1C116.9,231.7 117.1,232.3 116.9,233L115.9,237.2C115.8,237.6 115.9,237.8 116.2,237.9C116.5,238 116.8,237.6 117,236.7L117.1,236.1L118.2,236.4L118,236.9C117.6,238.7 116.6,239.5 115.1,239.1C114.1,238.9 113.6,238.3 113.7,237.4C113,238.1 111.9,238.3 110.6,238C109.9,237.8 109.4,237.5 109,237.1C108.6,236.6 108.5,236 108.7,235.2C109,234 110.1,233.4 111.8,233.4C113.6,233.4 114.6,233 114.7,232.3C114.9,231.4 114.4,230.8 113.2,230.5C112.9,230.4 112.6,230.4 112.3,230.4C111.9,230.4 111.7,230.5 111.4,230.7C112.2,230.8 112.5,231.2 112.3,231.9C112.1,232.6 111.7,232.8 110.9,232.7C110.5,232.6 110.3,232.4 110.1,232.1C109.9,231.8 109.8,231.5 110,231.1C110.2,230.3 110.8,229.9 111.6,229.7C112.3,229.6 113,229.6 113.9,229.8C115.3,230 116,230.4 116.5,231.1ZM111.1,235.5C110.9,236.2 111.2,236.6 111.9,236.9C112.4,237 112.9,236.9 113.3,236.5C113.7,236.2 114,235.7 114.2,235.2L114.5,234.1L112.4,234.4C112.1,234.5 111.8,234.6 111.6,234.7C111.4,234.9 111.2,235.1 111.1,235.5Z" style="fill:rgb(10,12,9);fill-rule:nonzero;"/>
                </g>
            </g>
            <g transform="matrix(1.03624,0,0,0.992721,43.9205,-143.759)">
                <path d="M27.1,250.5L27.1,251.3C26,251.4 25.2,251.5 24.5,251.7C23.9,251.9 23.3,252.3 22.7,252.8C21.9,253.5 21.4,254.4 21.1,255.6C20.8,256.7 20.7,258.5 20.7,260.9L20.7,290.9C20.7,293.9 20.5,296.3 20.1,297.9C19.7,299.5 19,300.9 17.9,302.1C16.8,303.2 15.4,304.2 13.6,304.9C11.8,305.6 9.9,306 8,306C6.9,306 5.8,305.9 4.7,305.6C3.6,305.3 2.8,305 2.1,304.5C0.9,303.7 0.3,302.6 0.3,301.3C0.3,300.5 0.5,299.8 1,299.3C1.5,298.8 2.1,298.5 2.8,298.5C3.5,298.5 4.1,298.8 4.6,299.3C4.8,299.6 5.1,299.9 5.2,300.3C5.4,300.7 5.7,301.4 6,302.5C6.3,303.5 6.7,304.2 7.2,304.6C7.7,305 8.3,305.2 9,305.2C10,305.2 10.8,304.9 11.5,304.2C12.2,303.5 12.8,302.5 13.1,301.2C13.6,299.4 13.9,295.9 13.9,290.8L13.9,261.1C13.9,259.7 13.8,258.4 13.6,257.3C13.4,255.8 12.9,254.7 12.1,253.9C10.9,252.5 9.3,251.8 7.3,251.6L7.3,250.8L27.1,250.8L27.1,250.5Z" style="fill-rule:nonzero;"/>
                <path d="M50.8,296.9C50.5,295.5 50.4,294.1 50.4,292.7C47.9,295.5 44.9,296.9 41.4,296.9C38.9,296.9 36.9,296.2 35.3,294.9C33.8,293.6 33.1,291.7 33.1,289.2L33.1,274.9C33.1,273.4 33,272.3 32.9,271.6C32.7,270.9 32.4,270.3 32,269.8C31.4,269.2 30.4,268.7 28.9,268.5L28.9,267.8L37.8,267.8L37.8,284.8C37.8,287.2 37.9,289 38,290.1C38.2,291.3 38.4,292.2 38.8,292.9C39.2,293.7 39.9,294.3 40.7,294.7C41.5,295.1 42.4,295.4 43.5,295.4C44.6,295.4 45.7,295.2 46.7,294.7C47.7,294.2 48.5,293.5 49,292.7C49.6,291.8 50,290.8 50.2,289.7C50.4,288.6 50.5,286.7 50.5,284.1L50.5,275C50.5,273.5 50.4,272.4 50.3,271.7C50.1,271 49.8,270.4 49.4,269.9C48.8,269.3 47.8,268.8 46.3,268.6L46.3,267.9L55.2,267.9L55.2,286C55.2,288.3 55.3,289.9 55.4,290.8C55.5,291.7 55.7,292.5 56,293.1C56.4,293.7 56.8,294.2 57.3,294.5C57.8,294.8 58.5,295 59.4,295L59.4,295.7L50.8,296.9Z" style="fill-rule:nonzero;"/>
                <path d="M69.3,267.3C69.7,268.9 69.9,270.4 70,272C71.3,270.5 72.7,269.3 74.3,268.5C75.9,267.7 77.5,267.3 79.2,267.3C81.1,267.3 82.7,267.8 83.9,268.9C84.7,269.5 85.5,270.7 86.5,272.3C88,270.6 89.6,269.3 91.1,268.5C92.7,267.7 94.3,267.3 96.1,267.3C98.5,267.3 100.5,268 102,269.5C103.5,271 104.3,272.9 104.3,275.3L104.3,289.3C104.3,290.8 104.4,291.9 104.5,292.6C104.7,293.3 105,293.9 105.4,294.4C106,295 107,295.5 108.5,295.8L108.5,296.5L95.4,296.5L95.4,295.8C96.6,295.6 97.5,295.4 98,295C98.5,294.7 98.9,294.1 99.3,293.3C99.5,292.8 99.7,292 99.8,291C99.9,290 99.9,288.5 99.9,286.5L99.9,280C99.9,277.5 99.8,275.7 99.7,274.6C99.6,273.5 99.3,272.5 98.9,271.7C98,269.8 96.3,268.8 94,268.8C91.5,268.8 89.7,269.8 88.6,271.9C87.6,273.7 87.1,276.4 87.1,280.2L87.1,289.2C87.1,290.7 87.2,291.8 87.3,292.5C87.4,293.2 87.8,293.8 88.2,294.3C88.8,294.9 89.8,295.4 91.3,295.7L91.3,296.4L78,296.4L78,295.7C79.2,295.5 80.1,295.3 80.6,294.9C81.1,294.6 81.5,294 81.9,293.2C82.1,292.7 82.3,291.9 82.4,290.9C82.5,289.9 82.5,288.4 82.5,286.4L82.5,280.2C82.5,277.6 82.4,275.7 82.3,274.4C82.1,273.2 81.9,272.2 81.4,271.4C81,270.6 80.3,270 79.5,269.5C78.7,269 77.8,268.8 76.8,268.8C75.7,268.8 74.6,269.1 73.6,269.7C72.6,270.3 71.8,271.1 71.2,272.1C70.7,273 70.3,274.1 70,275.4C69.8,276.7 69.7,278.3 69.7,280.4L69.7,289C69.7,290.5 69.8,291.6 69.9,292.3C70.1,293 70.4,293.6 70.8,294.1C71.4,294.7 72.4,295.2 73.9,295.5L73.9,296.2L60.7,296.2L60.7,295.5C61.9,295.3 62.8,295.1 63.3,294.7C63.8,294.4 64.2,293.8 64.6,293C64.8,292.5 65,291.7 65.1,290.7C65.2,289.7 65.2,288.2 65.2,286.2L65.2,277.9C65.2,275.6 65.1,274 65,273.1C64.9,272.2 64.7,271.4 64.3,270.8C64,270.2 63.5,269.7 63.1,269.4C62.6,269.1 61.9,268.9 61,268.9L61,268.2L69.3,267.3Z" style="fill-rule:nonzero;"/>
                <path d="M119.5,293.5L119.5,302C119.5,303.5 119.6,304.6 119.7,305.3C119.9,306 120.2,306.6 120.6,307.1C121.2,307.7 122.2,308.1 123.7,308.4L123.7,309.1L110.3,309.1L110.3,308.4C111.5,308.2 112.4,308 112.9,307.7C113.4,307.4 113.8,306.8 114.2,306.1C114.4,305.6 114.6,304.8 114.7,303.8C114.8,302.7 114.8,301.2 114.8,299.3L114.8,276C114.8,273.5 114.4,271.7 113.7,270.6C113,269.5 111.8,269 110.1,269L110.1,268.2L118.9,266.8C119.1,267.9 119.2,268.9 119.2,269.8L119.2,270.4C120.7,269.3 122.1,268.5 123.4,268C124.7,267.5 126.1,267.3 127.7,267.3C130.8,267.3 133.4,268.3 135.6,270.4C137,271.7 138,273.3 138.8,275.3C139.5,277.2 139.9,279.4 139.9,281.8C139.9,284.2 139.5,286.5 138.7,288.6C137.9,290.7 136.8,292.4 135.3,293.8C133,296 130.3,297.1 127.1,297.1C125.6,297.1 124.3,296.9 123.2,296.4C122.2,295.7 120.9,294.8 119.5,293.5ZM119.5,282.4C119.5,285.5 119.6,287.8 119.9,289.4C120.2,291 120.6,292.2 121.2,293.2C121.8,294.1 122.5,294.7 123.4,295.2C124.3,295.7 125.2,296 126.2,296C128.3,296 130.2,294.9 131.8,292.6C132.8,291.3 133.5,289.7 134,287.8C134.5,286 134.8,284 134.8,282.1C134.8,280.2 134.6,278.3 134.1,276.4C133.6,274.6 132.9,273 132,271.6C130.5,269.3 128.7,268.2 126.5,268.2C125.4,268.2 124.4,268.5 123.5,269.1C122.6,269.7 121.8,270.5 121.2,271.5C120.6,272.6 120.1,273.9 119.9,275.5C119.6,277.1 119.5,279.4 119.5,282.4Z" style="fill-rule:nonzero;"/>
                <path d="M151.9,293.5L151.9,302C151.9,303.5 152,304.6 152.1,305.3C152.3,306 152.6,306.6 153,307.1C153.6,307.7 154.6,308.1 156.1,308.4L156.1,309.1L142.7,309.1L142.7,308.4C143.9,308.2 144.8,308 145.3,307.7C145.8,307.4 146.2,306.8 146.6,306.1C146.8,305.6 147,304.8 147.1,303.8C147.2,302.7 147.2,301.2 147.2,299.3L147.2,276C147.2,273.5 146.8,271.7 146.1,270.6C145.4,269.5 144.2,269 142.5,269L142.5,268.2L151.3,266.8C151.5,267.9 151.6,268.9 151.6,269.8L151.6,270.4C153.1,269.3 154.5,268.5 155.8,268C157.1,267.5 158.5,267.3 160.1,267.3C163.2,267.3 165.8,268.3 168,270.4C169.4,271.7 170.4,273.3 171.2,275.3C171.9,277.2 172.3,279.4 172.3,281.8C172.3,284.2 171.9,286.5 171.1,288.6C170.3,290.7 169.2,292.4 167.7,293.8C165.4,296 162.7,297.1 159.5,297.1C158,297.1 156.7,296.9 155.6,296.4C154.6,295.7 153.4,294.8 151.9,293.5ZM151.9,282.4C151.9,285.5 152,287.8 152.3,289.4C152.6,291 153,292.2 153.6,293.2C154.2,294.1 154.9,294.7 155.8,295.2C156.7,295.7 157.6,296 158.6,296C160.7,296 162.6,294.9 164.2,292.6C165.2,291.3 165.9,289.7 166.4,287.8C166.9,286 167.2,284 167.2,282.1C167.2,280.2 167,278.3 166.5,276.4C166,274.6 165.3,273 164.4,271.6C162.9,269.3 161.1,268.2 158.9,268.2C157.8,268.2 156.8,268.5 155.9,269.1C155,269.7 154.2,270.5 153.6,271.5C153,272.6 152.5,273.9 152.3,275.5C152,277.1 151.9,279.4 151.9,282.4Z" style="fill-rule:nonzero;"/>
            </g>
        </g>
    </g>
</svg>
