<?xml version="1.0" encoding="UTF-8" standalone="no"?>
<!DOCTYPE svg PUBLIC "-//W3C//DTD SVG 1.1//EN" "http://www.w3.org/Graphics/SVG/1.1/DTD/svg11.dtd">
<svg width="100%" height="100%" viewBox="0 0 30 34" version="1.1" xmlns="http://www.w3.org/2000/svg" xmlns:xlink="http://www.w3.org/1999/xlink" xml:space="preserve" xmlns:serif="http://www.serif.com/" style="fill-rule:evenodd;clip-rule:evenodd;stroke-linejoin:round;stroke-miterlimit:2;">
    <g id="Layer_1">
    </g>
    <g id="Layer_1_1_">
    </g>
    <g transform="matrix(1,0,0,1,-6.48317,-393.529)">
        <rect id="Artboard1" x="6.483" y="393.529" width="29.339" height="33.707" style="fill:none;"/>
        <g id="Artboard11" serif:id="Artboard1">
            <g id="Layer_3">
            </g>
            <g id="Layer_1_2_" transform="matrix(1,0,0,1,40.4832,-146.471)">
                <g>
                    <g>
                        <path d="M-18.4,551.4C-18.6,551.6 -18.7,551.7 -18.7,551.9L-18.7,553.9L-15.8,553.9C-15.9,554.9 -16.1,556 -16.3,557L-18.8,557L-18.8,566L-22.6,566L-22.6,557L-24.4,557L-24.4,553.9L-22.6,553.9L-22.6,551.4C-22.6,550.7 -22.5,550.1 -22.1,549.5C-21.5,548.4 -20.3,547.9 -18.6,547.9L-15.8,547.9L-15.8,551L-17.9,551C-18,551.2 -18.2,551.2 -18.4,551.4Z" style="fill:white;fill-rule:nonzero;"/>
                    </g>
                </g>
            </g>
        </g>
    </g>
</svg>
